<svg xmlns="http://www.w3.org/2000/svg" width="27.967" height="24.678" viewBox="0 0 27.967 24.678">
  <g id="Group_119" data-name="Group 119" transform="translate(-2276.483 286.168)">
    <g id="Group_116" data-name="Group 116" transform="translate(2277.233 -285.418)">
      <path id="Ellipse_2" data-name="Ellipse 2" d="M5.684-.75A6.434,6.434,0,1,1-.75,5.684,6.442,6.442,0,0,1,5.684-.75Zm0,11.369A4.934,4.934,0,1,0,.75,5.684,4.94,4.94,0,0,0,5.684,10.619Z" transform="translate(11.128 9.447)" fill="#4f4f51"/>
      <path id="Line_8" data-name="Line 8" d="M3.4,4.032a.747.747,0,0,1-.521-.21L-.521.54A.75.75,0,0,1-.54-.521.75.75,0,0,1,.521-.54l3.4,3.283A.75.75,0,0,1,3.4,4.032Z" transform="translate(21.256 19.535)" fill="#4f4f51"/>
      <g id="Group_36" data-name="Group 36" transform="translate(0 0)">
        <path id="Path_43" data-name="Path 43" d="M820.3,575.935h-8.847c-2.371,0-3.432-1.482-3.432-2.952V554.009a2.9,2.9,0,0,1,.694-2.022,2.368,2.368,0,0,1,1.764-.73h14.891a2.5,2.5,0,0,1,2.645,2.646v4.749a.75.75,0,0,1-1.5,0V553.9a1.027,1.027,0,0,0-1.145-1.146H810.483c-.636,0-.958.421-.958,1.252v18.974c0,.341.139,1.452,1.932,1.452H820.3a.75.75,0,0,1,0,1.5Z" transform="translate(-808.775 -552.007)" fill="#4f4f51"/>
        <g id="Group_35" data-name="Group 35" transform="translate(3.843 4.405)">
          <path id="Line_9" data-name="Line 9" d="M11.048.75H0A.75.75,0,0,1-.75,0,.75.75,0,0,1,0-.75H11.048A.75.75,0,0,1,11.8,0,.75.75,0,0,1,11.048.75Z" fill="#4f4f51"/>
          <path id="Line_10" data-name="Line 10" d="M5.164.75H0A.75.75,0,0,1-.75,0,.75.75,0,0,1,0-.75H5.164a.75.75,0,0,1,.75.75A.75.75,0,0,1,5.164.75Z" transform="translate(0 5.764)" fill="#4f4f51"/>
          <path id="Line_11" data-name="Line 11" d="M3.723.75H0A.75.75,0,0,1-.75,0,.75.75,0,0,1,0-.75H3.723a.75.75,0,0,1,.75.75A.75.75,0,0,1,3.723.75Z" transform="translate(0 11.529)" fill="#4f4f51"/>
        </g>
      </g>
    </g>
    <path id="Path_210" data-name="Path 210" d="M875.68,609.619a.75.75,0,0,1-.53-1.28l4.367-4.367a.75.75,0,0,1,1.043-.017l1.764,1.653,6.86-6.793a.75.75,0,1,1,1.055,1.066l-7.373,7.3a.75.75,0,0,1-1.041.014l-1.761-1.651L876.21,609.4A.748.748,0,0,1,875.68,609.619Z" transform="translate(1413.917 -876.017)" fill="#4f4f51"/>
    <path id="Path_211" data-name="Path 211" d="M941.527,602.317a.75.75,0,0,1-.749-.726l-.048-1.489-1.57.01h-.005a.75.75,0,0,1,0-1.5l2.3-.015h.005a.75.75,0,0,1,.75.726l.072,2.219a.75.75,0,0,1-.725.774Z" transform="translate(1362.173 -876.017)" fill="#4f4f51"/>
  </g>
</svg>
