<svg id="Group_101" data-name="Group 101" xmlns="http://www.w3.org/2000/svg" width="26" height="19.504" viewBox="0 0 26 19.504">
  <path id="Path_1" data-name="Path 1" d="M169.474,247.4a3.786,3.786,0,0,1,.824,2.7c-.029,1.517-.005,3.035-.008,4.552a2.232,2.232,0,0,1-2.4,2.4c-.487,0-.974,0-1.461,0a2.2,2.2,0,0,1-2.135-1.871c-.018-.12-.035-.24-.056-.38H152c-.056.248-.093.505-.174.747a2.137,2.137,0,0,1-2.076,1.5,13.967,13.967,0,0,1-2.039-.054,2.13,2.13,0,0,1-1.77-2.092q-.024-2.775,0-5.55a3.026,3.026,0,0,1,.63-1.734c.056-.078.113-.154.182-.249a2.367,2.367,0,0,1-1.512-1.469,2.3,2.3,0,0,1,2.051-3.081c.679-.031,1.36-.005,2.048-.005.286-.692.556-1.359.838-2.021a5.4,5.4,0,0,1,2.051-2.677,3.646,3.646,0,0,1,1.917-.547c2.516-.01,5.031.013,7.547-.013a4.135,4.135,0,0,1,4.07,2.61c.352.755.647,1.538.968,2.307.043.1.087.207.14.333.621,0,1.236-.006,1.851,0a2.3,2.3,0,0,1,2.38,2.423,2.254,2.254,0,0,1-1.394,2.035c-.066.031-.133.06-.2.09C169.508,247.364,169.5,247.372,169.474,247.4Zm-11.359,5.8h6.744c.589,0,.858.271.867.863a6.532,6.532,0,0,0,.03.728.681.681,0,0,0,.74.648c.414,0,.828,0,1.242,0,.681,0,.94-.255.941-.934,0-1.631,0-3.263,0-4.894a1.938,1.938,0,0,0-.424-1.24c-.3-.382-.6-.769-.9-1.149a.714.714,0,0,1-.128-.793.751.751,0,0,1,.729-.437c.227,0,.455,0,.682,0a.827.827,0,1,0-.01-1.653c-.73,0-1.461,0-2.191,0a.818.818,0,0,1-.913-.6q-.532-1.279-1.061-2.56a2.755,2.755,0,0,0-2.984-2h-7.109a2.313,2.313,0,0,0-2.046,1.061,8.213,8.213,0,0,0-.641,1.17c-.342.761-.65,1.537-.972,2.307a.823.823,0,0,1-.924.622c-.755,0-1.51-.005-2.264,0a.826.826,0,0,0,0,1.65,3.149,3.149,0,0,1,.775.017,1.4,1.4,0,0,1,.683.415.621.621,0,0,1-.1.785,13.7,13.7,0,0,0-.89,1.156,2.251,2.251,0,0,0-.424,1.035c-.043,1.76-.027,3.522-.016,5.283a.714.714,0,0,0,.793.757c.268,0,.536-.013.8,0,1.2.065,1.37-.167,1.354-1.359-.009-.62.267-.883.893-.883Z" transform="translate(-145.11 -237.562)" fill="#4f4f51"/>
  <path id="Path_2" data-name="Path 2" d="M175.75,260.953h9.072l-.395-.9c-.2-.464-.137-.736.226-.931a.872.872,0,0,1,1.168.248c.337.682.642,1.382.928,2.087a.6.6,0,0,1-.527.761,2.307,2.307,0,0,1-.483.043q-5.454,0-10.908,0a2.412,2.412,0,0,1-.46-.038.62.62,0,0,1-.493-.925q.384-.894.783-1.78a.9.9,0,0,1,1.375-.315.55.55,0,0,1,.165.716C176.049,260.251,175.906,260.592,175.75,260.953Z" transform="translate(-167.283 -254.126)" fill="#4f4f51"/>
</svg>
