<svg xmlns="http://www.w3.org/2000/svg" width="26" height="19.504" viewBox="0 0 26 19.504">
  <g id="Group_118" data-name="Group 118" transform="translate(-1713.102 -141.871)">
    <g id="Group_115" data-name="Group 115" transform="translate(1713.102 141.871)">
      <g id="Group_33" data-name="Group 33" transform="translate(0 0)">
        <path id="Path_40" data-name="Path 40" d="M167.282,128.136a3.784,3.784,0,0,1,.824,2.7c-.029,1.517-.005,3.035-.008,4.552a2.232,2.232,0,0,1-2.4,2.4c-.487,0-.974,0-1.461,0a2.2,2.2,0,0,1-2.135-1.871c-.018-.12-.035-.24-.056-.38H149.809c-.056.248-.093.5-.174.747a2.137,2.137,0,0,1-2.076,1.5,13.97,13.97,0,0,1-2.039-.054,2.13,2.13,0,0,1-1.77-2.092q-.024-2.775,0-5.55a3.026,3.026,0,0,1,.63-1.734c.056-.077.113-.154.182-.248a2.368,2.368,0,0,1-1.512-1.47,2.3,2.3,0,0,1,2.051-3.081c.679-.031,1.36-.005,2.048-.005.286-.692.556-1.359.838-2.021a5.4,5.4,0,0,1,2.051-2.677,3.651,3.651,0,0,1,1.917-.547c2.516-.01,5.031.012,7.547-.013a4.135,4.135,0,0,1,4.07,2.61c.352.755.647,1.538.968,2.307.043.1.087.207.14.333.621,0,1.236-.006,1.851,0a2.3,2.3,0,0,1,2.38,2.423A2.254,2.254,0,0,1,167.522,128c-.066.031-.133.06-.2.09C167.316,128.1,167.312,128.106,167.282,128.136Zm-11.359,5.8h6.744c.589,0,.858.271.867.863a6.636,6.636,0,0,0,.03.728.681.681,0,0,0,.74.648c.414,0,.828,0,1.242,0,.681,0,.94-.255.941-.934,0-1.631,0-3.263,0-4.894a1.938,1.938,0,0,0-.424-1.24c-.3-.382-.6-.769-.9-1.149a.714.714,0,0,1-.128-.793.751.751,0,0,1,.729-.437c.227,0,.455,0,.682,0a.827.827,0,1,0-.01-1.653c-.73,0-1.461,0-2.191,0a.818.818,0,0,1-.913-.6q-.532-1.279-1.061-2.56a2.755,2.755,0,0,0-2.983-2h-7.109a2.313,2.313,0,0,0-2.046,1.061,8.214,8.214,0,0,0-.641,1.17c-.342.761-.65,1.537-.972,2.307a.823.823,0,0,1-.924.622c-.755,0-1.51-.005-2.264,0a.826.826,0,0,0,0,1.65,3.148,3.148,0,0,1,.775.017,1.4,1.4,0,0,1,.683.415.62.62,0,0,1-.1.785,13.667,13.667,0,0,0-.89,1.156,2.249,2.249,0,0,0-.424,1.034c-.043,1.76-.028,3.522-.016,5.283a.714.714,0,0,0,.793.757c.268,0,.536-.013.8,0,1.2.065,1.37-.167,1.354-1.359-.009-.62.267-.883.893-.883Z" transform="translate(-142.918 -118.296)" fill="#4f4f51"/>
      </g>
      <path id="Path_41" data-name="Path 41" d="M187.406,140.4H191.2v-2.513h-.332c-1.184,0-2.367,0-3.551,0a1.027,1.027,0,0,1-.676-.274,1.286,1.286,0,0,1-.222-.223,1.04,1.04,0,0,1-.262-.641q.014-1.378,0-2.756a.976.976,0,0,1,.279-.673,1.641,1.641,0,0,1,.342-.315,1.026,1.026,0,0,1,.6-.168c.42.018.841.005,1.3.005.013-.2,0-.406.005-.61s0-.417,0-.637h1.253v1.247c.459,0,.89.013,1.321-.005a.929.929,0,0,1,.6.169,1.637,1.637,0,0,1,.491.529.9.9,0,0,1,.124.463c-.005.445,0,.89,0,1.35h-1.263v-1.232h-3.77v2.508h.384c1.157,0,2.315,0,3.472,0a.99.99,0,0,1,.71.289,1.378,1.378,0,0,1,.364.439,1.019,1.019,0,0,1,.106.43q-.012,1.358,0,2.717a1.011,1.011,0,0,1-.291.708,1.668,1.668,0,0,1-.2.194,1.017,1.017,0,0,1-.677.271c-.445-.012-.891,0-1.351,0v1.247a5.439,5.439,0,0,1-.628.012c-.208,0-.417,0-.638,0V141.67c-.442,0-.874-.029-1.3.007a1.417,1.417,0,0,1-1.229-.91.3.3,0,0,1-.006-.115q0-.65,0-1.3v-.2h1.249Z" transform="translate(-176.315 -128.56)" fill="#4f4f51"/>
    </g>
  </g>
</svg>
