<svg xmlns="http://www.w3.org/2000/svg" width="22.769" height="25.003" viewBox="0 0 22.769 25.003">
  <g id="Group_102" data-name="Group 102" transform="translate(-307.465 -218.992)">
    <path id="Path_3" data-name="Path 3" d="M325.478,240.44c-.839,0-1.677.006-2.516,0-.188,0-.251.058-.288.238a3.905,3.905,0,0,1-7.651,0c-.041-.2-.126-.241-.312-.24q-2.45.01-4.9,0a2.031,2.031,0,0,1-2.094-1.624,1.972,1.972,0,0,1,.745-2.05q.4-.322.817-.613a1.91,1.91,0,0,0,.81-1.347c.376-2.326.728-4.656,1.157-6.973a7.53,7.53,0,0,1,5.035-5.965c.238-.091.331-.177.335-.447a2.23,2.23,0,0,1,4.348-.7,2.689,2.689,0,0,1,.116.772.316.316,0,0,0,.258.346,7.5,7.5,0,0,1,4.913,5.152,26,26,0,0,1,.563,2.98c.286,1.677.557,3.357.837,5.036a1.6,1.6,0,0,0,.621,1.028c.3.23.6.45.9.679a2.054,2.054,0,0,1-1.23,3.724C327.12,240.447,326.3,240.44,325.478,240.44Zm-6.637-1.127q4.521,0,9.042,0a.936.936,0,0,0,.585-1.729c-.3-.234-.618-.457-.918-.7a2.648,2.648,0,0,1-1-1.671c-.388-2.315-.794-4.628-1.145-6.948a6.566,6.566,0,0,0-8.079-5.533,6.184,6.184,0,0,0-4.91,4.984c-.493,2.283-.818,4.6-1.161,6.918a3.426,3.426,0,0,1-1.554,2.6,4.8,4.8,0,0,0-.6.461.914.914,0,0,0-.077,1.313,1.054,1.054,0,0,0,.855.31Q314.359,239.309,318.841,239.313Zm-2.712,1.142a2.774,2.774,0,0,0,5.432,0Zm1.624-19h2.2a1.086,1.086,0,0,0-1.134-1.142A1.073,1.073,0,0,0,317.752,221.451Z" fill="#4f4f51"/>
    <path id="Path_3_-_Outline" data-name="Path 3 - Outline" d="M318.85,243.995h0a4.115,4.115,0,0,1-4.02-3.278.253.253,0,0,0-.023-.072.324.324,0,0,0-.089-.008c-.9,0-1.83.005-2.778.005l-2.128,0a2.233,2.233,0,0,1-2.289-1.783,2.178,2.178,0,0,1,.815-2.246c.27-.219.549-.429.83-.622a1.7,1.7,0,0,0,.727-1.215q.134-.828.265-1.657c.278-1.746.565-3.552.892-5.32a7.726,7.726,0,0,1,5.161-6.115c.183-.07.2-.1.207-.263a2.415,2.415,0,0,1,2.035-2.4,2.725,2.725,0,0,1,.384-.027,2.382,2.382,0,0,1,2.32,1.669,2.861,2.861,0,0,1,.125.83c0,.1.005.117.126.16a7.7,7.7,0,0,1,5.037,5.283,17.034,17.034,0,0,1,.444,2.224c.039.256.08.521.124.779.183,1.069.362,2.158.535,3.21q.15.913.3,1.827a1.4,1.4,0,0,0,.546.9c.153.118.311.236.463.35s.291.217.435.328a2.254,2.254,0,0,1-1.35,4.083c-.283,0-.586,0-.953,0l-1.513,0-1.346,0c-.461,0-.833,0-1.173-.006h-.009a.268.268,0,0,0-.059,0,.326.326,0,0,0-.021.073A4.12,4.12,0,0,1,318.85,243.995Zm-4.134-3.758a.449.449,0,0,1,.5.4,3.713,3.713,0,0,0,3.628,2.958v.2l0-.2a3.719,3.719,0,0,0,3.629-2.962.43.43,0,0,1,.472-.4h.014c.337,0,.708.006,1.168.006l1.346,0,1.513,0c.365,0,.667,0,.949,0a1.854,1.854,0,0,0,1.11-3.366c-.142-.109-.289-.219-.431-.325s-.313-.234-.469-.354a1.791,1.791,0,0,1-.7-1.154q-.152-.913-.3-1.827c-.173-1.052-.352-2.139-.535-3.208-.045-.261-.086-.528-.125-.786a16.749,16.749,0,0,0-.433-2.172,7.315,7.315,0,0,0-4.789-5.02.514.514,0,0,1-.39-.531,2.5,2.5,0,0,0-.106-.714,1.989,1.989,0,0,0-1.939-1.39,2.323,2.323,0,0,0-.327.023,2.017,2.017,0,0,0-1.692,2.008.6.6,0,0,1-.464.63,7.348,7.348,0,0,0-4.91,5.815c-.326,1.764-.613,3.567-.891,5.31q-.132.829-.265,1.658a2.106,2.106,0,0,1-.894,1.48c-.272.188-.543.391-.8.6a1.777,1.777,0,0,0-.676,1.854,1.824,1.824,0,0,0,1.9,1.464l2.127,0c.948,0,1.881,0,2.773-.005Zm4.134,2.629a2.944,2.944,0,0,1-2.918-2.375l-.044-.237h5.9l-.031.227a2.923,2.923,0,0,1-2.832,2.383Zm-2.468-2.211a2.586,2.586,0,0,0,4.935,0Zm-6.5-1.139a1.264,1.264,0,0,1-1-.376,1.114,1.114,0,0,1,.094-1.6,4.961,4.961,0,0,1,.629-.48,3.229,3.229,0,0,0,1.463-2.457l.1-.663c.3-2.063.618-4.2,1.065-6.267a6.4,6.4,0,0,1,5.059-5.137,7.043,7.043,0,0,1,1.638-.2,6.794,6.794,0,0,1,6.686,5.893c.266,1.762.57,3.55.863,5.28q.141.833.282,1.666a2.453,2.453,0,0,0,.924,1.548c.18.144.37.285.553.422.121.09.242.181.362.273a1.135,1.135,0,0,1-.707,2.087H315C313.471,239.512,311.669,239.513,309.878,239.515Zm9.042-16.771a6.643,6.643,0,0,0-1.545.185,6.412,6.412,0,0,0-3.138,1.683,6.266,6.266,0,0,0-1.623,3.149c-.444,2.059-.758,4.185-1.061,6.241l-.1.663a3.6,3.6,0,0,1-1.645,2.736,4.571,4.571,0,0,0-.578.442.714.714,0,0,0-.061,1.029.85.85,0,0,0,.7.243c1.8,0,3.6,0,5.124,0h12.885a.738.738,0,0,0,.463-1.37c-.118-.091-.238-.18-.358-.269-.186-.138-.378-.282-.563-.43a2.842,2.842,0,0,1-1.069-1.794q-.14-.833-.281-1.665c-.294-1.731-.6-3.521-.864-5.287a6.618,6.618,0,0,0-2.163-4.008A6.277,6.277,0,0,0,318.92,222.744Zm1.227-1.093h-2.584l-.011-.188a1.266,1.266,0,0,1,.333-.942,1.284,1.284,0,0,1,.926-.411h.031a1.3,1.3,0,0,1,.935.379,1.332,1.332,0,0,1,.372.966Zm-2.187-.4h1.775a.873.873,0,0,0-.892-.742h-.023a.888.888,0,0,0-.641.283A.86.86,0,0,0,317.96,221.251Z" fill="#4f4f51"/>
  </g>
</svg>
