<svg xmlns="http://www.w3.org/2000/svg" width="24.499" height="23.86" viewBox="0 0 24.499 23.86">
  <g id="Group_198" data-name="Group 198" transform="translate(-26.25 -363.564)">
    <path id="Subtraction_3" data-name="Subtraction 3" d="M-1984.984,23.788a5.163,5.163,0,0,1-.763-.058.976.976,0,0,1-.786-.674.976.976,0,0,1,.255-1l1.832-1.762-.367-1.681-1.666-.432-1.832,1.763a.975.975,0,0,1-.679.274.981.981,0,0,1-.977-.87,4.971,4.971,0,0,1,1.545-4.219A4.989,4.989,0,0,1-1985,13.768a5.015,5.015,0,0,1,1.463.217l3.364-3.236,1.08,1.042-4.094,3.938-.454-.189a3.5,3.5,0,0,0-1.36-.272,3.49,3.49,0,0,0-2.4.949,3.483,3.483,0,0,0-1.009,1.729l1.489-1.433,3.37.875.743,3.4-1.487,1.43a3.5,3.5,0,0,0,1.7-.879,3.506,3.506,0,0,0,.886-3.791l-.172-.462,2.82-2.713.221.214a.388.388,0,0,0,.27.111.35.35,0,0,0,.254-.106l.057-.059a2.831,2.831,0,0,0,.343.822l-2.234,2.15a5.006,5.006,0,0,1-1.417,4.928A4.984,4.984,0,0,1-1984.984,23.788Zm10.935-12.144h0a2.817,2.817,0,0,0-1-.418l.057-.059a.372.372,0,0,0-.021-.524l-.079-.077,2.608-2.509.454.19a3.527,3.527,0,0,0,1.361.272,3.489,3.489,0,0,0,2.4-.95,3.472,3.472,0,0,0,1.009-1.728l-1.489,1.433-3.37-.875-.743-3.4,1.487-1.431a3.5,3.5,0,0,0-1.7.879,3.506,3.506,0,0,0-.886,3.791l.172.462-3.977,3.825-1.08-1.042,3.327-3.2a5,5,0,0,1,1.418-4.928A4.98,4.98,0,0,1-1970.684,0a5.165,5.165,0,0,1,.763.058.974.974,0,0,1,.786.673.974.974,0,0,1-.254,1l-1.833,1.763.368,1.681,1.665.432,1.832-1.763a.975.975,0,0,1,.679-.274.982.982,0,0,1,.977.871,4.968,4.968,0,0,1-1.546,4.218,4.984,4.984,0,0,1-3.424,1.355,5.028,5.028,0,0,1-1.464-.217l-1.913,1.84Z" transform="translate(2016.249 363.637)" fill="#4f4f51"/>
    <g id="Group_197" data-name="Group 197">
      <path id="Path_47_-_Outline" data-name="Path 47 - Outline" d="M951.755,201.23l3.9,2.412.245,1.2,6.882,6.642.5-.519a1.094,1.094,0,0,1,.794-.335h0a1.132,1.132,0,0,1,.791.321l.467.451a1.135,1.135,0,0,1,.332.624,3.64,3.64,0,0,1,1.046.708l6.514,6.3a3.467,3.467,0,0,1,.174,4.892l-.138.142a3.311,3.311,0,0,1-2.4,1.008,3.571,3.571,0,0,1-2.491-1.019l-6.514-6.3a3.638,3.638,0,0,1-.743-1.021,1.134,1.134,0,0,1-.635-.311l-.467-.451a1.122,1.122,0,0,1-.039-1.584l.5-.517-6.881-6.641-1.212-.2-2.541-3.815Zm2.556,3.346-2.318-1.435-.241.249,1.511,2.269,1.03.174,8.3,8.006-.579.6.294,1.222a2.111,2.111,0,0,0,.589,1.023l6.514,6.3a2.079,2.079,0,0,0,1.448.6,1.824,1.824,0,0,0,1.326-.551l.138-.142a1.966,1.966,0,0,0-.139-2.771l-6.514-6.3a2.111,2.111,0,0,0-1.042-.554l-1.231-.253-.578.6-8.3-8.006Z" transform="translate(-923.576 162.334)" fill="#4f4f51"/>
      <path id="Path_48" data-name="Path 48" d="M1017.09,268.718l-11.073-10.642,2.362-2.4,11.074,10.641-1.039,1.082-10-9.613-.259.264,9.98,9.591Z" transform="translate(-969.173 118.155)" fill="#4f4f51"/>
    </g>
  </g>
</svg>
