<svg xmlns="http://www.w3.org/2000/svg" width="26.414" height="25.383" viewBox="0 0 26.414 25.383">
  <g id="Group_134" data-name="Group 134" transform="translate(-25.522 -764.442)">
    <g id="R5HstZ" transform="translate(29.672 779.481)">
      <g id="Group_25" data-name="Group 25" transform="translate(0 0)">
        <path id="Path_35" data-name="Path 35" d="M674.584,634.622a1.66,1.66,0,0,0,1.185.468,1.595,1.595,0,1,0-1.624-1.277c.012.058.027.1-.045.146-.523.3-1.043.609-1.575.921a1.672,1.672,0,0,0-2.289-.266l-.752-.625c-.386-.321-.771-.644-1.159-.962a.131.131,0,0,1-.051-.175,1.583,1.583,0,0,0-1.118-2.083,1.621,1.621,0,0,0-2.017,1.283,1.492,1.492,0,0,0,.7,1.576,1.583,1.583,0,0,0,1.767.03.16.16,0,0,1,.224.019q.9.76,1.814,1.509a.142.142,0,0,1,.053.186,1.588,1.588,0,0,0,1.154,2.046,1.63,1.63,0,0,0,2-1.308c.019-.125,0-.256.014-.383a.2.2,0,0,1,.067-.136C673.48,635.267,674.028,634.948,674.584,634.622Zm1.161-.345a.781.781,0,1,1,.8-.78A.792.792,0,0,1,675.746,634.278Zm-8.987-1.189a.792.792,0,0,1-.814-.774.8.8,0,0,1,1.6-.014A.783.783,0,0,1,666.758,633.089Zm3.688,2.785a.787.787,0,0,1,.792-.783.781.781,0,1,1-.792.783Z" transform="translate(-665.116 -630.717)" fill="#4f4f51"/>
        <path id="Path_35_-_Outline" data-name="Path 35 - Outline" d="M671.242,637.614h0a1.852,1.852,0,0,1-.425-.05,1.763,1.763,0,0,1-1.135-.857,1.722,1.722,0,0,1-.127-1.383l0-.013-.011-.009c-.666-.549-1.259-1.043-1.815-1.51l-.024-.018-.028.015a1.739,1.739,0,0,1-1.924-.034,1.636,1.636,0,0,1-.766-1.725,1.748,1.748,0,0,1,1.75-1.462,1.827,1.827,0,0,1,.453.057,1.772,1.772,0,0,1,1.131.885,1.7,1.7,0,0,1,.09,1.395v0l.006.005c.28.229.562.465.835.692l.325.27.518.43.148.123a1.814,1.814,0,0,1,2.307.263l.245-.144c.411-.242.8-.47,1.2-.7v0a1.7,1.7,0,0,1,.348-1.428,1.789,1.789,0,0,1,1.4-.659,1.916,1.916,0,0,1,.194.01,1.754,1.754,0,0,1,1.585,1.825,1.779,1.779,0,0,1-1.751,1.648h-.021a1.8,1.8,0,0,1-1.184-.434l-.211.124c-.458.268-.89.521-1.329.783a.1.1,0,0,0-.008.029c0,.049,0,.1,0,.155a1.471,1.471,0,0,1-.012.237A1.757,1.757,0,0,1,671.242,637.614Zm-3.529-4.143a.33.33,0,0,1,.214.091c.555.467,1.148.96,1.813,1.508a.29.29,0,0,1,.1.35,1.4,1.4,0,0,0,.1,1.141,1.462,1.462,0,0,0,.941.711,1.546,1.546,0,0,0,.356.042,1.459,1.459,0,0,0,1.464-1.226,1.224,1.224,0,0,0,.008-.189,1.837,1.837,0,0,1,.005-.184.335.335,0,0,1,.14-.251c.445-.266.9-.533,1.345-.792l.4-.235.082.076a1.505,1.505,0,0,0,1.064.428h.018a1.475,1.475,0,0,0,1.454-1.364,1.454,1.454,0,0,0-1.316-1.511,1.594,1.594,0,0,0-.163-.008,1.491,1.491,0,0,0-1.163.548,1.406,1.406,0,0,0-.287,1.178l0,.009a.25.25,0,0,1-.119.3c-.407.236-.8.469-1.224.716l-.456.268-.082-.093a1.522,1.522,0,0,0-2.089-.243l-.094.067-.323-.269-.518-.43-.325-.271c-.273-.227-.554-.462-.833-.691a.278.278,0,0,1-.1-.343,1.4,1.4,0,0,0-.074-1.151,1.472,1.472,0,0,0-.94-.734,1.528,1.528,0,0,0-.378-.048,1.45,1.45,0,0,0-1.454,1.209,1.338,1.338,0,0,0,.634,1.427,1.44,1.44,0,0,0,1.609.025A.364.364,0,0,1,667.713,633.471Zm3.53,3.331a.931.931,0,1,1-.006-1.862h.007a.953.953,0,0,1,.68.283.913.913,0,0,1,.271.651A.944.944,0,0,1,671.243,636.8Zm0-1.562h0a.631.631,0,1,0,0,1.261.651.651,0,0,0,.652-.628.615.615,0,0,0-.183-.438A.656.656,0,0,0,671.244,635.241Zm4.5-.814a.944.944,0,0,1-.953-.922.916.916,0,0,1,.27-.656.953.953,0,0,1,.681-.283h0a.931.931,0,1,1,0,1.861Zm0-1.711v.15a.655.655,0,0,0-.469.194.618.618,0,0,0-.183.442.65.65,0,1,0,.653-.636Zm-8.994.522a.944.944,0,0,1-.956-.924.955.955,0,0,1,.943-.937h.007a.93.93,0,1,1,.016,1.86Zm-.006-1.56h0a.65.65,0,0,0-.645.635.643.643,0,0,0,.656.625h.007a.63.63,0,1,0-.013-1.26Z" transform="translate(-665.116 -630.717)" fill="#4f4f51"/>
      </g>
    </g>
    <path id="Ellipse_1" data-name="Ellipse 1" d="M5.857-.75A6.607,6.607,0,1,1-.75,5.857,6.615,6.615,0,0,1,5.857-.75Zm0,11.715A5.107,5.107,0,1,0,.75,5.857,5.113,5.113,0,0,0,5.857,10.965Z" transform="translate(39.472 769.926)" fill="#4f4f51"/>
    <g id="Group_133" data-name="Group 133" transform="translate(-33.728)">
      <g id="Group_16" data-name="Group 16" transform="translate(60 765.192)">
        <path id="Path_30" data-name="Path 30" d="M622.572,396.475h-9.116c-2.427,0-3.514-1.516-3.514-3.019V373.9a2.969,2.969,0,0,1,.709-2.068,2.417,2.417,0,0,1,1.8-.745H627.8a2.559,2.559,0,0,1,2.7,2.7v8.772a.75.75,0,0,1-.745.75l-5,.035h-.005a.75.75,0,0,1-.005-1.5l4.259-.03V373.8a1.078,1.078,0,0,0-1.2-1.2H612.452c-.67,0-1.01.442-1.01,1.312v19.552c0,.356.145,1.519,2.014,1.519h9.116a.75.75,0,0,1,0,1.5Z" transform="translate(-610.692 -371.842)" fill="#4f4f51"/>
        <g id="Group_15" data-name="Group 15" transform="translate(3.96 4.539)">
          <path id="Line_2" data-name="Line 2" d="M11.385.75H0A.75.75,0,0,1-.75,0,.75.75,0,0,1,0-.75H11.385a.75.75,0,0,1,.75.75A.75.75,0,0,1,11.385.75Z" fill="#4f4f51"/>
          <path id="Line_3" data-name="Line 3" d="M5.321.75H0A.75.75,0,0,1-.75,0,.75.75,0,0,1,0-.75H5.321a.75.75,0,0,1,.75.75A.75.75,0,0,1,5.321.75Z" transform="translate(0 5.94)" fill="#4f4f51"/>
        </g>
      </g>
      <g id="Group_132" data-name="Group 132" transform="translate(96.057 789.075) rotate(180)">
        <path id="Path_30-2" data-name="Path 30" d="M610.692,379.945a.75.75,0,0,1-.75-.75V373.9a2.969,2.969,0,0,1,.709-2.068,2.417,2.417,0,0,1,1.8-.745h7.754a.75.75,0,0,1,0,1.5h-7.754c-.67,0-1.01.442-1.01,1.312v5.291A.75.75,0,0,1,610.692,379.945Z" transform="translate(-593.692 -371.842)" fill="#4f4f51"/>
      </g>
    </g>
    <path id="Path_213" data-name="Path 213" d="M2040.164,779.509l-5.4-3.742.854-1.233,5.4,3.742Z" transform="translate(-1990 0.589)" fill="#4f4f51"/>
  </g>
</svg>
