<svg xmlns="http://www.w3.org/2000/svg" width="23.854" height="26.574" viewBox="0 0 23.854 26.574">
  <g id="Group_103" data-name="Group 103" transform="translate(-440.033 -203.312)">
    <path id="Path_4" data-name="Path 4" d="M514.848,240.557l.225-.169c.089,0,.214-.008.34-.01.1,0,.2,0,.294,0h5.315a1.3,1.3,0,0,0,.111.1.6.6,0,0,1,.237.545c0,.7-.012,1.407-.012,2.111q0,6.983,0,13.966c0,.138.01.277.012.415a.556.556,0,0,1-.412.567,1.265,1.265,0,0,1-.389.056h-4.364c-.259,0-.519,0-.778,0a.828.828,0,0,1-.514-.174.485.485,0,0,1-.167-.4q0-.329,0-.658,0-7.771,0-15.541c0-.144-.01-.289,0-.432a3.3,3.3,0,0,1,.074-.369Zm5.4,1a.275.275,0,0,0-.246-.1l-.551,0-3.274,0a.907.907,0,0,0-.172.015.183.183,0,0,0-.172.185,1.69,1.69,0,0,0,0,.19q0,1.22,0,2.44,0,4.959,0,9.917,0,1.263.007,2.527c0,.079.014.158.022.241a.584.584,0,0,0,.126.037c.108,0,.216,0,.324,0q1.862,0,3.724,0a1.265,1.265,0,0,0,.206-.032C520.284,256.742,520.29,241.741,520.244,241.552Z" transform="translate(-57.784 -28.553)" fill="#4f4f51"/>
    <path id="Path_4_-_Outline" data-name="Path 4 - Outline" d="M515.476,240.077l.231,0h5.43l.086.077.053.049c.011.01.019.019.028.026a.9.9,0,0,1,.366.793q0,.475-.006.949c0,.381-.006.774-.006,1.161q0,6.983,0,13.966c0,.074,0,.15.006.229,0,.06,0,.12.006.18a.858.858,0,0,1-.621.859,1.572,1.572,0,0,1-.479.07h-4.364l-.49,0-.293,0a1.121,1.121,0,0,1-.7-.239.776.776,0,0,1-.28-.631c0-.243,0-.459,0-.661l0-15.541c0-.041,0-.083,0-.124a2.972,2.972,0,0,1,.006-.335,2.1,2.1,0,0,1,.055-.3c.008-.035.017-.07.024-.1l.041-.194.159-.032.246-.185.169-.006c.08,0,.174-.006.269-.008Zm5.427.6h-5.2l-.231,0h-.058l-.24.007-.1.073a1.5,1.5,0,0,0-.038.2,2.489,2.489,0,0,0,0,.268c0,.046,0,.091,0,.137l0,15.541c0,.2,0,.414,0,.654,0,.128.037.156.054.17a.529.529,0,0,0,.333.109c.175,0,.351,0,.526,0h4.61a.967.967,0,0,0,.3-.043.259.259,0,0,0,.2-.275c0-.056,0-.111-.006-.167,0-.082-.007-.167-.007-.253q0-6.983,0-13.966c0-.389,0-.784.006-1.165,0-.315,0-.631.006-.946,0-.207-.052-.26-.106-.3A.6.6,0,0,1,520.9,240.679Zm-4.731.468,3.274,0,.553,0a.557.557,0,0,1,.436.167l.076.063.024.1c.029.119.042,2.731.04,7.765,0,3.462-.012,7.624-.05,7.788l-.045.2-.2.033-.047.009a.984.984,0,0,1-.208.026l-2.292,0h-1.6c-.068,0-.121,0-.171,0a.537.537,0,0,1-.169-.039l-.032-.011-.192-.059-.019-.2c0-.024-.005-.047-.008-.071a1.729,1.729,0,0,1-.015-.2c0-.854-.007-1.689-.007-2.528q0-3.5,0-6.99v-2.927q0-.86,0-1.72V241.8a1.469,1.469,0,0,1,.006-.185.481.481,0,0,1,.413-.446A1.194,1.194,0,0,1,516.172,241.147Zm3.78.608-.507,0-3.273,0h-.049c0,.014,0,.029,0,.043v.765q0,.86,0,1.721V247.2q0,3.495,0,6.99c0,.832,0,1.661.007,2.507h3.812C519.981,254.882,519.989,243.333,519.953,241.755Z" transform="translate(-57.784 -28.553)" fill="#4f4f51"/>
    <path id="Path_5" data-name="Path 5" d="M483.958,273.546l-.324.137h-5.611l-.333-.138a.759.759,0,0,1-.191-.583c.012-.629.006-1.258.006-1.886q0-5.037-.007-10.074a.574.574,0,0,1,.27-.525.448.448,0,0,1,.173-.066,1.647,1.647,0,0,1,.242-.006h5.388a.551.551,0,0,1,.574.553c.005.185,0,.369,0,.554q0,5.668,0,11.337a1.046,1.046,0,0,0,0,.121A.656.656,0,0,1,483.958,273.546Zm-.921-1.019c.01-.216.025-.411.026-.605q0-4.706,0-9.412c0-.248-.01-.5-.02-.743s-.059-.279-.3-.279c-1.287,0-2.574,0-3.862,0-.18,0-.279.055-.281.28,0,.138,0,.277,0,.415q0,4.628,0,9.256c0,.276,0,.553,0,.829,0,.084.019.167.03.262a1.959,1.959,0,0,0,.221.027q1.983,0,3.966,0A1.852,1.852,0,0,0,483.037,272.528Z" transform="translate(-28.865 -44.107)" fill="#4f4f51"/>
    <path id="Path_5_-_Outline" data-name="Path 5 - Outline" d="M483.7,273.983h-5.731l-.448-.185-.044-.046a1.058,1.058,0,0,1-.273-.8c.009-.478.008-.966.007-1.437q0-.222,0-.443V269.6c0-2.819,0-5.735-.006-8.6a.869.869,0,0,1,.406-.777.752.752,0,0,1,.292-.111,1.116,1.116,0,0,1,.164-.011l.122,0h5.388a.848.848,0,0,1,.874.845c0,.127,0,.254,0,.376,0,.062,0,.124,0,.186q0,5.669,0,11.337v.029c0,.022,0,.045,0,.057a.958.958,0,0,1-.272.821l-.042.043Zm-5.612-.6h5.49l.206-.087a.358.358,0,0,0,.07-.29,1.021,1.021,0,0,1-.005-.134v-.023q0-5.669,0-11.337c0-.064,0-.129,0-.193,0-.122,0-.237,0-.352a.253.253,0,0,0-.274-.262h-5.388l-.123,0a.552.552,0,0,0-.075,0,.15.15,0,0,0-.054.021.277.277,0,0,0-.133.272c0,2.868.006,5.784.006,8.6v1.471q0,.221,0,.442c0,.475,0,.966-.007,1.45a.511.511,0,0,0,.073.329Zm2.377-.527h-1.6a1.148,1.148,0,0,1-.184-.018l-.073-.011-.233-.029-.027-.234c0-.029-.007-.056-.011-.083a1.615,1.615,0,0,1-.021-.21c0-.255,0-.514,0-.764l0-9.326c0-.053,0-.106,0-.159,0-.087,0-.173,0-.26a.53.53,0,0,1,.578-.576h0q1.357.005,2.713,0h1.147c.4,0,.579.17.595.567.011.268.02.51.021.755,0,3.107,0,6.274,0,9.412,0,.14-.008.275-.016.418,0,.065-.007.132-.01.2l-.011.25-.248.034-.078.012a1.068,1.068,0,0,1-.179.019Zm-1.555-.6q1.924,0,3.846,0c.006-.116.012-.226.012-.333,0-3.138,0-6.3,0-9.411,0-.231-.009-.464-.02-.722h-2.29q-.775,0-1.549,0c0,.077,0,.154,0,.231,0,.055,0,.11,0,.164l0,9.326C478.9,271.754,478.9,272.008,478.906,272.256Z" transform="translate(-28.865 -44.107)" fill="#4f4f51"/>
    <path id="Path_6" data-name="Path 6" d="M454.352,211.614a.678.678,0,0,0,.152-.09c.688-.729,1.371-1.461,2.059-2.19.541-.573,1.087-1.141,1.629-1.714.277-.293.548-.592.825-.885.538-.569,1.079-1.135,1.618-1.7.058-.061.107-.13.16-.194-.062-.1-.141-.083-.214-.083-.392,0-.785,0-1.162,0-.253-.124-.448-.265-.444-.572s.193-.45.461-.57h3.012a1.216,1.216,0,0,0,.126.07.5.5,0,0,1,.306.465c.013.149,0,.3,0,.449,0,.6,0,1.2,0,1.8a1.644,1.644,0,0,1-.05.391.547.547,0,0,1-.843.223.567.567,0,0,1-.227-.5c.016-.247,0-.5,0-.744a1.007,1.007,0,0,0-.024-.147.233.233,0,0,0-.2.1c-.471.505-.941,1.012-1.414,1.514s-.976,1.027-1.464,1.541q-.993,1.044-1.986,2.088c-.277.293-.543.6-.82.889-.312.331-.634.652-.943.985a.537.537,0,0,1-.418.168.717.717,0,0,1-.406-.125q-.382-.25-.766-.5-.522-.335-1.046-.668-.509-.323-1.019-.643c-.122-.076-.246-.149-.364-.23-.144-.1-.2-.1-.331.025s-.251.238-.382.351c-.274.238-.552.471-.827.708-.239.206-.475.417-.715.623-.436.376-.876.748-1.311,1.125-.287.248-.568.5-.856.752-.44.379-.886.753-1.326,1.132-.288.248-.569.5-.855.753q-.513.45-1.028.9c-.178.155-.359.306-.54.457a.577.577,0,0,1-.762-.079.535.535,0,0,1,.06-.8c.357-.325.726-.638,1.09-.956.3-.261.6-.524.9-.783.423-.365.848-.726,1.27-1.091.3-.256.588-.516.884-.772.431-.373.864-.742,1.294-1.116.3-.26.594-.527.9-.786.427-.368.859-.73,1.287-1.1.2-.169.386-.346.579-.517a.616.616,0,0,1,.582-.187,1.406,1.406,0,0,1,.336.168c.212.126.421.257.629.39.179.115.352.238.532.352.2.13.411.251.616.379.175.11.347.223.52.336l.591.385C454.118,211.467,454.226,211.534,454.352,211.614Z" transform="translate(-1.14)" fill="#4f4f51"/>
    <path id="Path_6_-_Outline" data-name="Path 6 - Outline" d="M442.38,217.977a.837.837,0,0,1-.672-.309.827.827,0,0,1,.1-1.2c.253-.231.515-.458.769-.677l.325-.283.283-.247q.307-.269.616-.537l.627-.538q.322-.276.644-.553.227-.2.453-.4t.431-.377l.6-.52q.346-.3.69-.6c.138-.12.274-.24.411-.361.158-.14.322-.285.485-.425q.335-.289.673-.574.308-.261.614-.524c.114-.1.229-.2.34-.3.079-.071.157-.142.236-.212a.969.969,0,0,1,.647-.28.812.812,0,0,1,.212.029,1.473,1.473,0,0,1,.376.178l.036.021c.19.113.392.238.637.395.089.057.176.115.26.172s.181.122.271.179c.109.07.223.139.332.205.094.057.189.115.282.173.134.084.269.172.4.257l.125.082.24.157.35.228.17.109q.486-.515.969-1.032.514-.548,1.03-1.1.44-.466.883-.93.373-.392.746-.784c.138-.145.276-.3.411-.44s.275-.3.414-.444q.436-.461.874-.92l.527-.554h-.851l-.063-.031a.881.881,0,0,1,.027-1.685l.059-.026h3.155l.069.039.042.025a.539.539,0,0,0,.054.03.792.792,0,0,1,.488.716,3.344,3.344,0,0,1,.006.348c0,.042,0,.084,0,.126v.431c0,.449,0,.914,0,1.371a1.93,1.93,0,0,1-.059.463.772.772,0,0,1-.787.56.844.844,0,0,1-.541-.183.865.865,0,0,1-.332-.745c.006-.086.007-.173.007-.261l-.106.113c-.336.361-.684.734-1.028,1.1s-.71.749-1.057,1.113l-.988,1.037c-.461.484-.939.985-1.406,1.479-.139.147-.278.3-.413.447s-.269.295-.407.441-.28.293-.417.434c-.174.179-.353.364-.524.549a.83.83,0,0,1-.634.264h-.012a1.015,1.015,0,0,1-.562-.174c-.278-.182-.528-.344-.764-.5-.359-.231-.711-.455-1.044-.667l-.749-.473-.269-.17-.111-.069c-.078-.048-.159-.1-.24-.152l-.1.1c-.085.08-.173.162-.265.242-.151.131-.3.261-.456.391l-.372.318q-.171.147-.34.3-.187.164-.375.327l-.571.49q-.37.317-.739.634c-.137.118-.275.241-.408.359s-.3.263-.448.393q-.331.285-.665.568t-.661.565c-.172.148-.346.3-.514.451l-.339.3c-.282.248-.654.573-1.029.9-.169.146-.342.291-.51.432l-.035.029A.816.816,0,0,1,442.38,217.977Zm8.275-8.307a.415.415,0,0,0-.25.13c-.077.068-.154.138-.231.207-.114.1-.232.209-.351.312q-.307.264-.617.526-.336.285-.67.571c-.16.138-.322.281-.479.42-.138.122-.276.244-.415.365q-.345.3-.692.6l-.6.519q-.215.186-.428.374t-.456.4q-.322.278-.645.555l-.625.537q-.307.265-.612.534l-.283.248-.327.284c-.251.217-.51.442-.758.667-.124.113-.161.2-.02.4a.257.257,0,0,0,.188.065.231.231,0,0,0,.14-.039l.034-.029c.166-.139.337-.282.5-.425.374-.324.745-.649,1.027-.9l.336-.3c.169-.15.345-.306.52-.457q.331-.285.664-.567t.662-.565c.148-.127.3-.26.442-.388s.275-.243.414-.364q.37-.32.742-.637l.57-.488q.187-.161.371-.323t.343-.3l.374-.32q.227-.193.452-.387c.083-.072.163-.147.248-.226l.128-.119a.558.558,0,0,1,.373-.175.577.577,0,0,1,.331.124c.075.052.153.1.236.15l.118.073.269.17.751.474c.334.212.687.437,1.047.669.237.153.488.316.768.5a.42.42,0,0,0,.234.076.242.242,0,0,0,.206-.071c.176-.19.358-.378.534-.559.136-.14.276-.285.411-.428s.269-.29.4-.434.278-.3.421-.456c.468-.495.946-1,1.407-1.481l.988-1.037c.346-.363.7-.739,1.055-1.111s.69-.737,1.026-1.1l.387-.416a.531.531,0,0,1,.4-.2l.041,0,.234.017.04.231c0,.012,0,.024.007.035a.8.8,0,0,1,.021.157c0,.061,0,.122,0,.182.005.19.011.387,0,.587a.269.269,0,0,0,.122.248.26.26,0,0,0,.153.04c.03,0,.179-.005.206-.11a1.348,1.348,0,0,0,.04-.318c0-.454,0-.917,0-1.365V204.6c0-.046,0-.091,0-.137a2.853,2.853,0,0,0,0-.287c-.013-.154-.068-.19-.124-.214a.84.84,0,0,1-.091-.046H459.5c-.209.1-.227.18-.228.274s.014.159.216.268h1.135a.471.471,0,0,1,.42.22l.119.184-.139.169-.045.057c-.037.048-.08.1-.129.153l-.744.783q-.437.459-.873.919c-.137.145-.276.295-.41.439s-.275.3-.415.445q-.373.394-.747.786-.441.463-.881.928-.515.546-1.029,1.094t-1.03,1.1a.6.6,0,0,1-.182.125l-.037.019-.158.092-.26-.165-.236-.15-.352-.229-.239-.156-.126-.082c-.128-.083-.259-.169-.39-.251-.091-.057-.183-.113-.275-.169-.112-.068-.228-.139-.342-.212-.1-.061-.192-.126-.285-.188s-.165-.111-.248-.164c-.238-.153-.436-.275-.62-.384l-.038-.023a1.008,1.008,0,0,0-.223-.113A.209.209,0,0,0,450.655,209.67Z" transform="translate(-1.14)" fill="#4f4f51"/>
    <path id="Path_7" data-name="Path 7" d="M440.333,281.411q0-2.094,0-4.188a.612.612,0,0,1,.459-.633.835.835,0,0,1,.241-.016l5.023,0a1.794,1.794,0,0,0,.26,0,.564.564,0,0,1,.47.173.642.642,0,0,1,.154.26.777.777,0,0,1,.025.257q0,3.877,0,7.753c0,.208-.006.415,0,.623.011.416-.292.582-.634.6-.293.015-.587,0-.88,0-.242,0-.484-.007-.726-.006-1.195,0-2.39.012-3.585.013a1.58,1.58,0,0,1-.391-.055.516.516,0,0,1-.4-.521c0-.329-.012-.657-.012-.986,0-.3.01-.6.01-.9q0-1.185,0-2.371Zm5.518,3.656a1.412,1.412,0,0,0,.029-.191c0-.184,0-.369,0-.553q0-1.54,0-3.079,0-1.583,0-3.165c0-.112-.021-.224-.034-.348-.108-.008-.193-.019-.278-.019l-2.562.007c-.421,0-.842,0-1.263,0a2.782,2.782,0,0,0-.3.035c-.007.076-.016.138-.017.2,0,.156,0,.311,0,.467q0,2.145,0,4.29c0,.692,0,1.383,0,2.075a2.523,2.523,0,0,0,.033.29C441.715,285.13,445.685,285.123,445.851,285.067Z" transform="translate(0 -56.662)" fill="#4f4f51"/>
    <path id="Path_7_-_Outline" data-name="Path 7 - Outline" d="M446.031,286.545c-.109,0-.217,0-.326,0-.178,0-.355,0-.533-.007-.132,0-.263,0-.395,0h-.056l-1.187,0c-.786,0-1.6.007-2.4.008a1.858,1.858,0,0,1-.466-.065.818.818,0,0,1-.623-.81c0-.148,0-.3-.006-.443,0-.178-.006-.362-.006-.544,0-.159,0-.32.005-.475s0-.283,0-.425q0-.871,0-1.742v-.329h-.013V280.4q0-1.588,0-3.177a.909.909,0,0,1,.671-.92.793.793,0,0,1,.235-.03h.094l5.023,0,.091,0a.859.859,0,0,0,.125,0,.794.794,0,0,1,.117-.009.88.88,0,0,1,.6.255.908.908,0,0,1,.236.382.964.964,0,0,1,.043.338v.02q0,3.877,0,7.753c0,.074,0,.148,0,.221,0,.136,0,.264,0,.394a.87.87,0,0,1-.919.906C446.248,286.543,446.147,286.545,446.031,286.545Zm-1.254-.614c.134,0,.268,0,.4,0,.179,0,.358,0,.537.007.105,0,.21,0,.315,0s.2,0,.281-.006c.356-.018.351-.209.349-.291,0-.14,0-.28,0-.415,0-.072,0-.143,0-.215q0-3.877,0-7.753v-.021a.61.61,0,0,0-.008-.134.355.355,0,0,0-.072-.137c-.1-.09-.158-.1-.2-.1l-.029,0a.961.961,0,0,1-.143.01l-.091,0-.07,0-5.023,0h-.094a.263.263,0,0,0-.059,0,.315.315,0,0,0-.247.346q0,1.588,0,3.177v.711h.013v.928q0,.872,0,1.743c0,.145,0,.289-.005.434s-.005.31,0,.464c0,.178,0,.36.006.535,0,.15,0,.3.006.449a.219.219,0,0,0,.173.232,1.288,1.288,0,0,0,.314.046c.8,0,1.612,0,2.4-.008l1.188,0Zm-1.314-.518h0c-.849,0-1.9-.008-2.065-.045l-.209-.046-.025-.212c0-.025-.007-.05-.011-.076a1.683,1.683,0,0,1-.024-.248c0-.5,0-1,0-1.488v-4.976c0-.125,0-.249,0-.374,0-.056.007-.107.012-.156,0-.021,0-.042.007-.066l.022-.241.241-.029.091-.013a1.675,1.675,0,0,1,.239-.024c.252,0,.5,0,.755,0h.51l1.162,0,1.4,0c.07,0,.135.006.2.012l.1.008.251.018.026.251c0,.038.009.074.013.11a2.1,2.1,0,0,1,.023.268c0,.851,0,1.716,0,2.553v.613q0,1.018,0,2.037v1.179c0,.138,0,.281,0,.423a1.089,1.089,0,0,1-.025.188c0,.015-.006.03-.008.044l-.029.179-.172.058A15.574,15.574,0,0,1,443.464,285.413Zm-1.734-.619c.3.011.9.019,1.734.019h0c1,0,1.763-.012,2.118-.025,0-.108,0-.218,0-.325v-1.181q0-1.019,0-2.037v-.613c0-.836,0-1.7,0-2.551,0-.022,0-.045,0-.069h-.009l-1.4,0-1.162,0h-1.279c0,.1,0,.2,0,.3V283.3c0,.487,0,.99,0,1.485C441.729,284.787,441.729,284.79,441.729,284.793Z" transform="translate(0 -56.662)" fill="#4f4f51"/>
  </g>
</svg>
