<svg xmlns="http://www.w3.org/2000/svg" width="26.909" height="25.383" viewBox="0 0 26.909 25.383">
  <g id="Group_109" data-name="Group 109" transform="translate(-609.942 -371.092)">
    <path id="Ellipse_1" data-name="Ellipse 1" d="M5.857-.75A6.607,6.607,0,1,1-.75,5.857,6.615,6.615,0,0,1,5.857-.75Zm0,11.715A5.107,5.107,0,1,0,.75,5.857,5.113,5.113,0,0,0,5.857,10.965Z" transform="translate(622.159 381.577)" fill="#4f4f51"/>
    <path id="Line_1" data-name="Line 1" d="M3.506,4.132a.747.747,0,0,1-.521-.21L-.521.54A.75.75,0,0,1-.54-.521.75.75,0,0,1,.521-.54L4.027,2.843a.75.75,0,0,1-.521,1.29Z" transform="translate(632.595 391.971)" fill="#4f4f51"/>
    <g id="Group_16" data-name="Group 16" transform="translate(610.692 371.842)">
      <path id="Path_30" data-name="Path 30" d="M622.572,396.475h-9.116c-2.427,0-3.514-1.516-3.514-3.019V373.9a2.969,2.969,0,0,1,.709-2.068,2.417,2.417,0,0,1,1.8-.745H627.8a2.559,2.559,0,0,1,2.7,2.7v4.893a.75.75,0,0,1-1.5,0V373.8a1.078,1.078,0,0,0-1.2-1.2H612.452c-.67,0-1.01.442-1.01,1.312v19.552c0,.356.145,1.519,2.014,1.519h9.116a.75.75,0,0,1,0,1.5Z" transform="translate(-610.692 -371.842)" fill="#4f4f51"/>
      <g id="Group_15" data-name="Group 15" transform="translate(3.96 4.539)">
        <path id="Line_2" data-name="Line 2" d="M11.385.75H0A.75.75,0,0,1-.75,0,.75.75,0,0,1,0-.75H11.385a.75.75,0,0,1,.75.75A.75.75,0,0,1,11.385.75Z" fill="#4f4f51"/>
        <path id="Line_3" data-name="Line 3" d="M5.321.75H0A.75.75,0,0,1-.75,0,.75.75,0,0,1,0-.75H5.321a.75.75,0,0,1,.75.75A.75.75,0,0,1,5.321.75Z" transform="translate(0 5.94)" fill="#4f4f51"/>
        <path id="Line_4" data-name="Line 4" d="M3.836.75H0A.75.75,0,0,1-.75,0,.75.75,0,0,1,0-.75H3.836a.75.75,0,0,1,.75.75A.75.75,0,0,1,3.836.75Z" transform="translate(0 11.88)" fill="#4f4f51"/>
      </g>
    </g>
  </g>
</svg>
