<svg xmlns="http://www.w3.org/2000/svg" width="24.5" height="23.5" viewBox="0 0 24.5 23.5">
  <g id="Group_199" data-name="Group 199" transform="translate(-25.75 -815.531)">
    <path id="Subtraction_4" data-name="Subtraction 4" d="M-1966.25,4.25h-2.581a3.52,3.52,0,0,0,.081-.75,3.52,3.52,0,0,0-.081-.75h2.581a.751.751,0,0,1,.75.75A.751.751,0,0,1-1966.25,4.25Zm-9.42,0h-13.58a.751.751,0,0,1-.75-.75.751.751,0,0,1,.75-.75h13.58a3.533,3.533,0,0,0-.08.75,3.527,3.527,0,0,0,.08.748Z" transform="translate(2015.75 815.781)" fill="#4f4f51"/>
    <path id="Union_6" data-name="Union 6" d="M-1990,3.75A3.754,3.754,0,0,1-1986.25,0a3.754,3.754,0,0,1,3.749,3.75A3.754,3.754,0,0,1-1986.25,7.5,3.754,3.754,0,0,1-1990,3.75Zm2,0a1.752,1.752,0,0,0,1.75,1.75,1.751,1.751,0,0,0,1.75-1.75A1.752,1.752,0,0,0-1986.25,2,1.752,1.752,0,0,0-1988,3.75Z" transform="translate(2029.75 815.531)" fill="#4f4f51"/>
    <path id="Subtraction_5" data-name="Subtraction 5" d="M-1966.25,4.25h-13.58a3.526,3.526,0,0,0,.08-.75,3.525,3.525,0,0,0-.08-.75h13.58a.751.751,0,0,1,.75.75A.751.751,0,0,1-1966.25,4.25Zm-20.42,0h-2.581a.751.751,0,0,1-.75-.75.751.751,0,0,1,.75-.75h2.581a3.526,3.526,0,0,0-.08.75,3.52,3.52,0,0,0,.08.748Z" transform="translate(2015.75 823.781)" fill="#4f4f51"/>
    <path id="Union_5" data-name="Union 5" d="M-1990,3.75A3.754,3.754,0,0,1-1986.25,0a3.754,3.754,0,0,1,3.749,3.75A3.754,3.754,0,0,1-1986.25,7.5,3.754,3.754,0,0,1-1990,3.75Zm2,0a1.752,1.752,0,0,0,1.75,1.75,1.751,1.751,0,0,0,1.75-1.75A1.752,1.752,0,0,0-1986.25,2,1.752,1.752,0,0,0-1988,3.75Z" transform="translate(2018.75 823.531)" fill="#4f4f51"/>
    <path id="Subtraction_6" data-name="Subtraction 6" d="M-1966.25,4.25h-2.581a3.52,3.52,0,0,0,.081-.75,3.52,3.52,0,0,0-.081-.75h2.581a.751.751,0,0,1,.75.75A.751.751,0,0,1-1966.25,4.25Zm-9.42,0h-13.58a.751.751,0,0,1-.75-.75.751.751,0,0,1,.75-.75h13.58a3.533,3.533,0,0,0-.08.75,3.527,3.527,0,0,0,.08.748Z" transform="translate(2015.75 831.781)" fill="#4f4f51"/>
    <path id="Union_4" data-name="Union 4" d="M-1990,3.75A3.754,3.754,0,0,1-1986.25,0a3.754,3.754,0,0,1,3.749,3.75A3.754,3.754,0,0,1-1986.25,7.5,3.754,3.754,0,0,1-1990,3.75Zm2,0a1.752,1.752,0,0,0,1.75,1.75,1.751,1.751,0,0,0,1.75-1.75A1.752,1.752,0,0,0-1986.25,2,1.752,1.752,0,0,0-1988,3.75Z" transform="translate(2029.75 831.531)" fill="#4f4f51"/>
  </g>
</svg>
