<svg xmlns="http://www.w3.org/2000/svg" width="25.455" height="25.404" viewBox="0 0 25.455 25.404">
  <g id="Group_104" data-name="Group 104" transform="translate(-589.526 -195.716)">
    <path id="Path_8" data-name="Path 8" d="M593.8,198.379v-.734c0-.309,0-.619,0-.928a.618.618,0,0,1,.185-.451.875.875,0,0,1,.28-.232.668.668,0,0,1,.275-.066q.867.008,1.734,0a.645.645,0,0,1,.451.186.848.848,0,0,1,.19.2.747.747,0,0,1,.109.383c-.01.542,0,1.085,0,1.635h1.609v-.183c0-.493,0-.987,0-1.48a.65.65,0,0,1,.174-.43.842.842,0,0,1,.142-.141.682.682,0,0,1,.434-.168c.578.008,1.156.006,1.734,0a.631.631,0,0,1,.43.176,1.027,1.027,0,0,1,.2.217.677.677,0,0,1,.107.383c-.009.493,0,.987,0,1.48v.149h1.609v-.246c0-.468.008-.937-.005-1.4a.6.6,0,0,1,.118-.378.918.918,0,0,1,.45-.358.488.488,0,0,1,.144-.016c.595,0,1.19,0,1.785,0a.573.573,0,0,1,.353.119.923.923,0,0,1,.358.449.581.581,0,0,1,.015.169c0,.551,0,1.1,0,1.676h.221c.871,0,1.743,0,2.614,0a1.092,1.092,0,0,1,.724.261,1.284,1.284,0,0,1,.429.624.789.789,0,0,1,.032.261q0,3.487,0,6.975v4.07a3.051,3.051,0,0,1,.721.213,5.6,5.6,0,0,1,.688.342,5.521,5.521,0,0,1,.629.417,3.417,3.417,0,0,1,.572.535,5.132,5.132,0,0,1,.483.6,6.539,6.539,0,0,1,.4.664,5.833,5.833,0,0,1,.281.687,4.943,4.943,0,0,1,.189.722,5.353,5.353,0,0,1,.034,1.5,5.267,5.267,0,0,1-.976,2.482,5.517,5.517,0,0,1-2.059,1.683,3.419,3.419,0,0,1-.5.2c-.164.052-.338.074-.5.117s-.368.052-.538.1a2.512,2.512,0,0,1-.536.034,3.625,3.625,0,0,1-.578,0c-.18-.016-.357-.076-.537-.093a3.783,3.783,0,0,1-.508-.115,2.268,2.268,0,0,1-.5-.188c-.152-.077-.317-.128-.465-.21a4.839,4.839,0,0,1-.454-.3c-.143-.1-.284-.208-.42-.319s-.286-.245-.44-.378H591.726a1.908,1.908,0,0,1-1.045-.329,2.248,2.248,0,0,1-.7-.763,1.917,1.917,0,0,1-.154-.437,1.282,1.282,0,0,1-.05-.255c-.008-.091,0-.184,0-.276q0-8.818,0-17.636a1.1,1.1,0,0,1,.263-.722,1.272,1.272,0,0,1,.626-.428.674.674,0,0,1,.212-.031c.888,0,1.776,0,2.665,0Zm8.852,14.265a.77.77,0,0,0,.135-.127c.273-.4.577-.784.873-1.169a.182.182,0,0,0,0-.24c-.044-.056-.082-.117-.125-.174q-.426-.552-.852-1.1a.154.154,0,0,1-.035-.085c0-.307,0-.614,0-.923h.8v.643l.812,1.073.8-1.066c0-.1,0-.206,0-.315a1.943,1.943,0,0,1,.009-.331h.79v.955l-1.049,1.39a.232.232,0,0,0,.07.209,2.985,2.985,0,0,1,.23.3c.14.184.281.367.419.547a5.182,5.182,0,0,1,2.737-1.67v-4.949H592.2V216.84h12.189a5.186,5.186,0,0,1,.629-3.913l-.762-1.013-.81,1.073v.637h-.8Zm-12.07-9.456h19.309c0-1.2,0-2.4,0-3.594a.39.39,0,0,0-.218-.356.581.581,0,0,0-.279-.058c-.855,0-1.71,0-2.565,0h-.154v.162c0,.5,0,1,0,1.506a.633.633,0,0,1-.064.276.872.872,0,0,1-.307.345.558.558,0,0,1-.325.124c-.612-.008-1.224,0-1.835,0a.354.354,0,0,1-.159-.04.809.809,0,0,1-.533-.805c.013-.517,0-1.034,0-1.552h-1.609c0,.563,0,1.115,0,1.667a.591.591,0,0,1-.017.169.907.907,0,0,1-.359.449.535.535,0,0,1-.328.118c-.6-.01-1.207,0-1.81,0a.485.485,0,0,1-.143-.018.916.916,0,0,1-.45-.359.611.611,0,0,1-.116-.379c.013-.476,0-.953,0-1.43v-.216H597.02v.177c0,.485-.006.97,0,1.455a.629.629,0,0,1-.108.382.936.936,0,0,1-.279.28.677.677,0,0,1-.357.113c-.578-.012-1.156,0-1.735-.006a.451.451,0,0,1-.172-.01.9.9,0,0,1-.579-.807c.028-.524.007-1.051.007-1.568-.016-.013-.023-.023-.029-.023-.922,0-1.844,0-2.765,0a.388.388,0,0,0-.379.251.564.564,0,0,0-.044.232q0,1.142,0,2.283Zm23.336,12.47a2.085,2.085,0,0,0-.045-.409,1.82,1.82,0,0,1-.049-.428,3.139,3.139,0,0,0-.228-.812,4.705,4.705,0,0,0-.953-1.462c-.136-.141-.291-.263-.44-.391a1.2,1.2,0,0,0-.229-.173,9.27,9.27,0,0,0-.98-.485,5.72,5.72,0,0,0-1.3-.267,4.529,4.529,0,0,0-.527,0c-.143.123-.342-.021-.486.1a2.118,2.118,0,0,0-.838.221,4.69,4.69,0,0,0-1.536,1.021c-.079.08-.143.175-.215.262a2.187,2.187,0,0,0-.263.318,5.71,5.71,0,0,0-.5,1,3.218,3.218,0,0,0-.13.45c-.024.145-.071.289-.091.437a3.962,3.962,0,0,0-.048.481,3.428,3.428,0,0,0,.036.558,5.223,5.223,0,0,0,.114.659,6.726,6.726,0,0,0,.205.642,4.27,4.27,0,0,0,.247.475c.091.165.2.319.3.476.059.089.173.144.222.236a.767.767,0,0,0,.295.321c.142.074.2.238.36.281.056.015.088.106.145.134a9.968,9.968,0,0,0,.98.486,5.229,5.229,0,0,0,1.393.274,1.361,1.361,0,0,0,.467-.025c.157-.044.328.03.472-.072a5.028,5.028,0,0,0,.82-.2,5.671,5.671,0,0,0,1.461-.959c.087-.083.148-.193.234-.278a3.294,3.294,0,0,0,.567-.82,3.448,3.448,0,0,0,.21-.415,3.609,3.609,0,0,0,.157-.461A6.217,6.217,0,0,0,613.919,215.657Zm-8.838,2.8c-.084-.133-.155-.237-.216-.346a2.554,2.554,0,0,1-.15-.314c-.054-.138-.049-.14-.179-.143h-.126q-6.122,0-12.243,0a.614.614,0,0,1-.363-.1.981.981,0,0,1-.319-.322.59.59,0,0,1-.1-.311q0-5.7,0-11.392a.394.394,0,0,1,0-.149.948.948,0,0,1,.781-.583c3.31.01,6.62.006,9.93.006h6.21a.538.538,0,0,1,.2.006.934.934,0,0,1,.583.779c-.015,1.539-.007,3.078-.007,4.617v.211h.795c.035-.719.021-6.206-.015-6.407H590.583V213.9q0,1.681,0,3.362a1.132,1.132,0,0,0,.229.681,1.22,1.22,0,0,0,1.016.51h13.253Zm-10.45-21.68c-.036.212-.035,3.817,0,4.006h1.577c.034-.9.021-3.788-.019-4.006Zm4.806,4.006h1.6c.033-.776.02-3.79-.015-4h-1.581Zm4.832-4v4.006h1.592v-4.006Z" transform="translate(0 0)" fill="#4f4f51"/>
    <path id="Path_8_-_Outline" data-name="Path 8 - Outline" d="M605.956,195.716a.825.825,0,0,1,.494.168,1.169,1.169,0,0,1,.448.575.736.736,0,0,1,.027.229v.015c0,.422,0,.844,0,1.275v.151h1.427c.453,0,.82,0,1.156,0h.01a1.343,1.343,0,0,1,.872.316,1.542,1.542,0,0,1,.51.741,1.027,1.027,0,0,1,.045.338c0,2,0,4.04,0,6.009v4.827a3.97,3.97,0,0,1,.495.164l.064.024a5.07,5.07,0,0,1,.642.313l.078.043a5.718,5.718,0,0,1,.657.435,3.645,3.645,0,0,1,.614.575c.039.046.079.091.119.136a3.724,3.724,0,0,1,.387.493c.039.062.078.123.118.184a4.084,4.084,0,0,1,.3.506,6.055,6.055,0,0,1,.293.717,5.117,5.117,0,0,1,.2.759,5.621,5.621,0,0,1,.035,1.568,5.539,5.539,0,0,1-1.022,2.6,5.733,5.733,0,0,1-2.149,1.759,3.671,3.671,0,0,1-.531.214,3.1,3.1,0,0,1-.317.076c-.07.014-.136.028-.2.044a2.6,2.6,0,0,1-.291.053,1.945,1.945,0,0,0-.243.045,1.264,1.264,0,0,1-.35.041H609.7c-.038,0-.069,0-.1,0a3.881,3.881,0,0,1-.618,0,2.449,2.449,0,0,1-.3-.051,2.106,2.106,0,0,0-.237-.042,2.3,2.3,0,0,1-.4-.082c-.049-.013-.1-.027-.146-.038a2.5,2.5,0,0,1-.555-.209c-.06-.03-.125-.057-.195-.086a2.655,2.655,0,0,1-.278-.128,4.673,4.673,0,0,1-.446-.292l-.032-.022c-.15-.107-.3-.218-.433-.329-.1-.084-.2-.17-.306-.261l-.069-.061H591.726a2.144,2.144,0,0,1-1.18-.368,2.467,2.467,0,0,1-.775-.844,1.539,1.539,0,0,1-.151-.395c-.009-.033-.018-.067-.028-.1a1.526,1.526,0,0,1-.059-.3,1.882,1.882,0,0,1,0-.22c0-.026,0-.052,0-.078v-2.839c0-4.85,0-9.865,0-14.8a1.353,1.353,0,0,1,.319-.879,1.529,1.529,0,0,1,.744-.509.922.922,0,0,1,.288-.043q.8,0,1.591,0h1.084v-.484c0-.091,0-.182,0-.273,0-.213,0-.434,0-.649a.868.868,0,0,1,.253-.627l.02-.022a1.025,1.025,0,0,1,.344-.269.92.92,0,0,1,.37-.087h.006c.594.005,1.174.006,1.73,0h.008a.89.89,0,0,1,.612.25l.035.03a.872.872,0,0,1,.207.233,1,1,0,0,1,.14.508c-.007.391-.006.792,0,1.179q0,.1,0,.2h1.109q0-.178,0-.357c0-.346,0-.7,0-1.054a.9.9,0,0,1,.231-.592,1.076,1.076,0,0,1,.185-.183.939.939,0,0,1,.576-.219h.012c.51.007,1.045.007,1.728,0h.008a.877.877,0,0,1,.588.237,1.251,1.251,0,0,1,.25.273.93.93,0,0,1,.146.521c-.006.356-.005.72,0,1.072q0,.152,0,.3h1.109c0-.129,0-.258,0-.386,0-.331,0-.673-.006-1.007a.846.846,0,0,1,.167-.534,1.168,1.168,0,0,1,.577-.448.719.719,0,0,1,.218-.028h.939c.23,0,.534,0,.842-.006Zm2.4,2.914h-1.927v-.651c0-.431,0-.853,0-1.274v-.016a.479.479,0,0,0,0-.079.679.679,0,0,0-.269-.323.325.325,0,0,0-.2-.07h0c-.312.005-.618.006-.85.006h-.938a.279.279,0,0,0-.07.005.668.668,0,0,0-.324.269.35.35,0,0,0-.069.222c.01.342.008.689.006,1.024q0,.194,0,.388v.5H601.6v-.4q0-.2,0-.4c0-.354,0-.72,0-1.082a.427.427,0,0,0-.069-.245.823.823,0,0,0-.154-.162.386.386,0,0,0-.261-.115c-.329,0-.619,0-.892,0-.3,0-.581,0-.851-.005h-.005a.44.44,0,0,0-.275.118.592.592,0,0,0-.1.1.406.406,0,0,0-.118.27c0,.354,0,.713,0,1.061q0,.211,0,.422v.433H596.77v-.25q0-.226,0-.45c0-.39,0-.794.005-1.19a.5.5,0,0,0-.078-.257.547.547,0,0,0-.1-.1l-.041-.036a.4.4,0,0,0-.278-.123c-.27,0-.543,0-.817,0-.3,0-.613,0-.926,0a.44.44,0,0,0-.175.046.607.607,0,0,0-.175.15l-.021.023a.371.371,0,0,0-.117.275c0,.222,0,.446,0,.662,0,.09,0,.181,0,.271v.984h-1.584q-.794,0-1.589,0a.428.428,0,0,0-.136.019,1.029,1.029,0,0,0-.508.346.85.85,0,0,0-.208.565c0,4.932,0,9.948,0,14.8V217.2c0,.03,0,.059,0,.089a1.5,1.5,0,0,0,0,.164,1.028,1.028,0,0,0,.04.205c.011.037.021.074.032.111a1.138,1.138,0,0,0,.1.269,1.991,1.991,0,0,0,.617.681,1.659,1.659,0,0,0,.909.289h14.053l.07.061.142.124c.1.088.2.171.292.249.129.1.266.209.408.309l.032.023a4.238,4.238,0,0,0,.4.262,2.245,2.245,0,0,0,.227.1c.075.031.153.063.231.1a2.026,2.026,0,0,0,.443.168c.054.013.109.028.163.042a1.9,1.9,0,0,0,.311.067,2.512,2.512,0,0,1,.294.051,2.044,2.044,0,0,0,.241.042,3.381,3.381,0,0,0,.538,0c.039,0,.081,0,.132,0h.141a.8.8,0,0,0,.214-.022,2.339,2.339,0,0,1,.307-.059,2.191,2.191,0,0,0,.236-.042c.077-.02.153-.035.226-.05a2.675,2.675,0,0,0,.266-.063,3.164,3.164,0,0,0,.459-.185,5.246,5.246,0,0,0,1.968-1.606,5.046,5.046,0,0,0,.93-2.366,5.121,5.121,0,0,0-.033-1.428,4.721,4.721,0,0,0-.18-.685,5.633,5.633,0,0,0-.269-.657A3.648,3.648,0,0,0,613.7,213c-.042-.064-.084-.129-.125-.194a3.3,3.3,0,0,0-.337-.427c-.042-.047-.083-.095-.124-.143a3.149,3.149,0,0,0-.53-.5,5.3,5.3,0,0,0-.6-.4l-.079-.043a4.626,4.626,0,0,0-.578-.284l-.066-.025a2.528,2.528,0,0,0-.6-.174l-.221-.026v-5.258c0-1.969,0-4.005,0-6.008a.566.566,0,0,0-.019-.182,1.03,1.03,0,0,0-.349-.508.84.84,0,0,0-.558-.205h-.007C609.174,198.629,608.805,198.63,608.352,198.63Zm-13.932-2.107H596.4l.037.205c.046.254.055,3.2.023,4.06l-.009.241h-2.026l-.037-.205c-.04-.221-.04-3.855,0-4.092Zm1.535.5h-1.086c-.017.691-.018,2.81,0,3.506h1.1C595.987,199.583,595.978,197.672,595.955,197.023Zm8.065-.5h2.092v4.506h-2.092Zm1.592.5h-1.092v3.506h1.092Zm-6.424-.5h2.042l.035.208c.042.249.049,3.341.019,4.05l-.01.239h-2.086Zm1.6.5h-1.1v3.5h1.1C600.811,199.652,600.8,197.692,600.782,197.031Zm8.61,1.9a.835.835,0,0,1,.4.086.636.636,0,0,1,.352.576c0,.907,0,1.831,0,2.725v1.12H590.333v-1.832q0-.968,0-1.937a.8.8,0,0,1,.065-.331.64.64,0,0,1,.607-.4c.386,0,.8,0,1.319,0h1.448a.266.266,0,0,1,.185.077l.092.075v.12c0,.153,0,.307,0,.462,0,.366.009.744-.011,1.12a.653.653,0,0,0,.412.557l.089,0h.067l.865,0c.324,0,.573,0,.808.007h.005a.455.455,0,0,0,.222-.08.7.7,0,0,0,.2-.207.381.381,0,0,0,.062-.234c-.006-.353-.005-.71,0-1.056q0-.2,0-.4v-.427h2.109v.466c0,.133,0,.266,0,.4,0,.34,0,.691-.006,1.038a.362.362,0,0,0,.068.225.663.663,0,0,0,.324.267.252.252,0,0,0,.068.006h.943c.238,0,.553,0,.87.006h0a.292.292,0,0,0,.174-.068.66.66,0,0,0,.269-.321.482.482,0,0,0,.006-.1c0-.41,0-.82,0-1.234v-.683h2.109v.25c0,.156,0,.311,0,.466,0,.357,0,.727,0,1.091a.563.563,0,0,0,.39.573.109.109,0,0,0,.052.016h.955c.241,0,.559,0,.884,0h0a.336.336,0,0,0,.18-.08.621.621,0,0,0,.221-.243.382.382,0,0,0,.041-.169c0-.372,0-.75,0-1.115q0-.2,0-.393v-.412H608Zm.25,4.008v-.621c0-.893,0-1.816,0-2.722a.141.141,0,0,0-.083-.135.336.336,0,0,0-.16-.029l-1.391,0h-1.08q0,.153,0,.305c0,.364,0,.74,0,1.109a.874.874,0,0,1-.086.382,1.111,1.111,0,0,1-.392.447.8.8,0,0,1-.462.168h-.008c-.322,0-.638,0-.878,0h-.955a.6.6,0,0,1-.267-.064,1.058,1.058,0,0,1-.676-1.037c.009-.357.007-.723,0-1.077q0-.11,0-.219H602.1v.183c0,.415,0,.825,0,1.235a.809.809,0,0,1-.028.241,1.158,1.158,0,0,1-.449.576.78.78,0,0,1-.47.167h-.01c-.314,0-.626-.006-.863-.006h-.944a.716.716,0,0,1-.218-.03,1.147,1.147,0,0,1-.576-.45.858.858,0,0,1-.164-.533c.009-.339.008-.686.006-1.022q0-.184,0-.367H597.27q0,.166,0,.333c0,.343,0,.7,0,1.045a.874.874,0,0,1-.153.531,1.18,1.18,0,0,1-.36.354.938.938,0,0,1-.469.145h-.016c-.231,0-.477-.007-.8-.007l-.865,0h-.1l-.059,0a.44.44,0,0,1-.18-.034,1.155,1.155,0,0,1-.728-1.05c.019-.36.015-.729.011-1.087q0-.12,0-.24h-1.228c-.513,0-.931,0-1.316,0a.141.141,0,0,0-.151.1.316.316,0,0,0-.024.135q0,.968,0,1.936v1.332Zm-19.309.821h19.744l.037.206c.048.268.046,5.891.018,6.463l-.012.238h-1.283V210.2q0-.607,0-1.214c0-1.116,0-2.27.008-3.405a.694.694,0,0,0-.414-.539l-.037,0c-.027,0-.054,0-.08,0H597.767c-1.643,0-3.592,0-5.595-.007a.7.7,0,0,0-.538.406v.007c0,.023,0,.046,0,.068v1c0,3.405,0,6.926,0,10.39a.351.351,0,0,0,.066.184.734.734,0,0,0,.242.241.367.367,0,0,0,.224.057q5.2,0,10.393,0h1.98a.363.363,0,0,1,.4.285l.007.017a2.282,2.282,0,0,0,.136.283c.038.068.081.135.132.213l.078.122.241.383H591.828a1.468,1.468,0,0,1-1.216-.61,1.377,1.377,0,0,1-.279-.831q0-1.2,0-2.4Zm19.295.5H590.833v10.6q0,1.2,0,2.4a.88.88,0,0,0,.179.531.972.972,0,0,0,.816.409h12.8a2.763,2.763,0,0,1-.145-.3H602.56q-5.2,0-10.393,0a.87.87,0,0,1-.5-.142,1.222,1.222,0,0,1-.4-.4.831.831,0,0,1-.135-.437c0-3.463,0-6.984,0-10.389v-1c0-.008,0-.017,0-.026a.44.44,0,0,1,.027-.225,1.19,1.19,0,0,1,1.007-.731c2,.006,3.953.007,5.6.007h10.546l.042,0c.027,0,.055,0,.081,0a.434.434,0,0,1,.174.033,1.184,1.184,0,0,1,.734,1.011c-.011,1.133-.009,2.285-.008,3.4q0,.588,0,1.175h.3C609.665,209.013,609.649,205.217,609.628,204.258Zm-17.674,1.1h16.568v5.4l-.19.047a4.955,4.955,0,0,0-2.608,1.591l-.2.231-.307-.4-.3-.39c-.028-.037-.055-.076-.082-.115a1.269,1.269,0,0,0-.128-.166.485.485,0,0,1-.14-.417l.009-.065,1.038-1.375v-.621h-.3c0,.028,0,.057,0,.088,0,.071,0,.144,0,.214,0,.032,0,.063,0,.094v.084l-1.054,1.4-1.062-1.4v-.477h-.3c0,.21,0,.419,0,.628l.5.646.336.435c.024.031.047.064.069.1s.036.052.056.077a.431.431,0,0,1,0,.545l-.161.209c-.238.307-.484.624-.7.948a.558.558,0,0,1-.092.1v.614h.3V212.9l1.061-1.405,1.062,1.412-.086.144a4.968,4.968,0,0,0-.6,3.731l.067.3H591.954Zm16.068.5H592.454V216.59H604.09a5.417,5.417,0,0,1,.633-3.645l-.463-.615-.56.742v.8h-1.3v-1.34l.081-.074c.016-.014.034-.029.053-.044a.421.421,0,0,0,.045-.039c.228-.337.479-.66.721-.973l.137-.178-.044-.062c-.018-.026-.036-.052-.055-.077l-.336-.435-.516-.669a.4.4,0,0,1-.086-.236c0-.239,0-.483,0-.719v-.455h1.3v.809l.561.742.554-.734s0,0,0-.007c0-.075,0-.152,0-.231,0-.034,0-.068,0-.1a1.137,1.137,0,0,1,.015-.275l.042-.2h1.242v1.288l-1.028,1.363a1.847,1.847,0,0,1,.16.209c.022.032.045.065.069.1l.237.31a5.418,5.418,0,0,1,2.471-1.474Zm1.481,5.107h0a1.885,1.885,0,0,1,.225.012,5.952,5.952,0,0,1,1.352.28,5.228,5.228,0,0,1,.709.339c.1.053.2.108.3.157a1.187,1.187,0,0,1,.247.179l.032.028.1.084a4.634,4.634,0,0,1,.359.324,4.956,4.956,0,0,1,1,1.539,3.359,3.359,0,0,1,.245.877c.008.062.01.12.012.177a.687.687,0,0,0,.022.191.852.852,0,0,1,.051.335.621.621,0,0,0,.006.116l.006.029v.029a6.49,6.49,0,0,1-.169,1.212,2.714,2.714,0,0,1-.128.392l-.039.1a2.439,2.439,0,0,1-.168.344c-.019.034-.038.068-.056.1a3.476,3.476,0,0,1-.612.88,1.089,1.089,0,0,0-.091.11,1.426,1.426,0,0,1-.146.171,5.938,5.938,0,0,1-1.524,1L611.2,220l-.036.006a1.907,1.907,0,0,0-.3.085,1.9,1.9,0,0,1-.494.119.659.659,0,0,1-.3.061h-.1a.309.309,0,0,0-.074.006,1.272,1.272,0,0,1-.347.043c-.062,0-.127,0-.207-.009a5.446,5.446,0,0,1-1.459-.288,5.094,5.094,0,0,1-.686-.329c-.109-.059-.212-.115-.319-.168a.443.443,0,0,1-.153-.134.717.717,0,0,1-.272-.2.419.419,0,0,0-.085-.079,1.016,1.016,0,0,1-.4-.424.528.528,0,0,0-.059-.056.8.8,0,0,1-.15-.159l-.061-.091c-.087-.128-.176-.26-.254-.4l-.061-.109a3.129,3.129,0,0,1-.2-.395,6.777,6.777,0,0,1-.208-.65l0-.016a3.739,3.739,0,0,1-.1-.531c-.007-.053-.014-.106-.022-.159a3.674,3.674,0,0,1-.038-.6,3.734,3.734,0,0,1,.044-.465l.006-.046a2.643,2.643,0,0,1,.053-.262c.015-.064.03-.124.039-.181a2.347,2.347,0,0,1,.1-.378c.012-.036.024-.071.035-.107a4.224,4.224,0,0,1,.393-.823c.042-.073.083-.146.123-.219a1.336,1.336,0,0,1,.208-.268c.029-.032.057-.061.081-.09s.045-.057.067-.086a1.906,1.906,0,0,1,.162-.193,4.941,4.941,0,0,1,1.617-1.076l.017-.007a2.454,2.454,0,0,1,.843-.232.523.523,0,0,1,.243-.053c.029,0,.059,0,.089,0l.057,0h.016l.062-.053h.093c.053,0,.105,0,.158,0S609.446,210.97,609.5,210.97Zm4.165,4.707a1.129,1.129,0,0,1-.011-.186.419.419,0,0,0-.015-.15,1.037,1.037,0,0,1-.057-.359c0-.047,0-.092-.008-.131a2.865,2.865,0,0,0-.21-.747,4.458,4.458,0,0,0-.9-1.384,4.2,4.2,0,0,0-.321-.288l-.1-.086-.036-.031a.8.8,0,0,0-.143-.109c-.106-.053-.211-.11-.312-.165a4.778,4.778,0,0,0-.641-.309,5.528,5.528,0,0,0-1.24-.253,1.409,1.409,0,0,0-.166-.008h0c-.052,0-.105,0-.158,0l-.1,0a.522.522,0,0,1-.246.055c-.029,0-.059,0-.089,0l-.057,0h-.016l-.064.053-.108,0a1.9,1.9,0,0,0-.707.195l-.017.007a4.444,4.444,0,0,0-1.455.967,1.524,1.524,0,0,0-.12.144c-.026.034-.052.068-.079.1s-.068.077-.1.112a.942.942,0,0,0-.135.167c-.042.076-.085.152-.128.227a3.788,3.788,0,0,0-.35.725c-.012.039-.025.077-.038.116a1.934,1.934,0,0,0-.083.3c-.012.075-.029.147-.046.217s-.035.146-.044.214l-.007.047a3.316,3.316,0,0,0-.039.4,3.17,3.17,0,0,0,.033.518c.008.055.016.111.023.166a3.318,3.318,0,0,0,.084.461l0,.016a6.315,6.315,0,0,0,.192.6,2.722,2.722,0,0,0,.169.332l.064.115c.067.123.146.24.23.364l.063.093a.48.48,0,0,0,.062.059.7.7,0,0,1,.172.2.535.535,0,0,0,.19.218.8.8,0,0,1,.222.183.3.3,0,0,0,.088.078.392.392,0,0,1,.208.154l.007.009c.107.053.211.11.312.165a4.642,4.642,0,0,0,.619.3,4.9,4.9,0,0,0,1.327.259c.066.005.119.008.167.008a.788.788,0,0,0,.212-.024.766.766,0,0,1,.209-.025h.1c.058,0,.074-.006.082-.012l.065-.046h.08a1.3,1.3,0,0,0,.4-.095,2.52,2.52,0,0,1,.339-.1,5.409,5.409,0,0,0,1.367-.9,1.022,1.022,0,0,0,.094-.113,1.488,1.488,0,0,1,.137-.162,3.036,3.036,0,0,0,.522-.76c.019-.037.04-.073.06-.11a2.04,2.04,0,0,0,.136-.274l.041-.108a2.324,2.324,0,0,0,.106-.32A6.115,6.115,0,0,0,613.668,215.676Z" transform="translate(0 0)" fill="#4f4f51"/>
    <path id="Path_9" data-name="Path 9" d="M639.318,268.075h-.8v-.79h-1.611v.792H636.1c0-.442-.011-.883.006-1.323a2.372,2.372,0,0,1,.117-.476c.06-.234.121-.469.178-.7.072-.3.127-.6.217-.889.07-.224.112-.453.179-.677.058-.193.095-.394.155-.588a.551.551,0,0,0,0-.151h1.5a2.4,2.4,0,0,0,.119.573c.041.189.079.381.135.569.092.306.152.621.243.928.068.233.106.474.164.71s.117.453.176.679a.491.491,0,0,1,.023.115C639.318,267.252,639.318,267.66,639.318,268.075Zm-2.28-1.608h1.341c-.188-.812-.4-1.6-.589-2.391h-.164C637.44,264.878,637.224,265.662,637.038,266.467Z" transform="translate(-37.471 -54.447)" fill="#4f4f51"/>
    <path id="Path_9_-_Outline" data-name="Path 9 - Outline" d="M637.157,268.327h-1.307v-.25c0-.125,0-.249,0-.374,0-.314,0-.638.008-.958a1.466,1.466,0,0,1,.084-.391c.015-.048.03-.094.041-.138l.038-.15c.046-.181.094-.368.139-.551.024-.1.046-.2.068-.294.044-.2.09-.407.154-.61.034-.108.06-.217.089-.334s.055-.226.09-.341c.026-.086.048-.175.07-.269s.049-.2.081-.305c0-.007,0-.014,0-.022,0-.023,0-.046,0-.07v-.25h2.011l-.008.258a1.045,1.045,0,0,0,.06.311c.019.064.038.131.053.2l.018.084c.033.155.067.315.112.465s.09.329.129.49.072.3.114.44.077.306.108.455c.019.092.038.18.059.267.036.147.076.3.114.444q.031.116.061.232l.005.019a.594.594,0,0,1,.026.157c0,.31,0,.62,0,.932v.551h-1.3v-.79h-1.111Zm-.808-.5h.308v-.792h2.111v.79h.3v-.051c0-.31,0-.617,0-.925,0-.007-.005-.022-.008-.033l-.007-.026c-.02-.076-.04-.152-.06-.228-.039-.148-.08-.3-.117-.454-.023-.095-.043-.19-.062-.282-.03-.145-.059-.283-.1-.416-.046-.155-.084-.311-.12-.462s-.076-.313-.122-.464c-.051-.169-.087-.34-.122-.5l-.018-.083c-.011-.054-.028-.109-.044-.167s-.039-.135-.055-.208h-1.049c-.026.086-.047.173-.069.265s-.048.2-.078.3-.056.205-.083.315-.059.241-.1.364c-.057.184-.1.371-.143.57-.023.1-.045.2-.07.3-.045.186-.094.375-.141.557l-.038.149c-.015.057-.032.112-.049.165a1.068,1.068,0,0,0-.061.258c-.012.31-.009.628-.007.936Q636.348,267.763,636.349,267.827Zm2.345-1.109h-1.97l.07-.306c.1-.414.2-.828.3-1.229.1-.38.2-.773.286-1.163l.045-.193h.561l.045.193c.088.373.184.756.278,1.126.1.412.212.838.311,1.266Zm-1.34-.5h.71c-.077-.32-.158-.639-.236-.95-.039-.155-.079-.312-.118-.469-.043.171-.086.34-.128.507C637.505,265.6,637.428,265.91,637.354,266.217Z" transform="translate(-37.471 -54.447)" fill="#4f4f51"/>
    <path id="Path_10" data-name="Path 10" d="M619.069,263.28v.788h-1.6v4.014h-.8v-4H615.06a3.423,3.423,0,0,1-.008-.4c0-.132,0-.265,0-.4Z" transform="translate(-20.445 -54.455)" fill="#4f4f51"/>
    <path id="Path_10_-_Outline" data-name="Path 10 - Outline" d="M614.8,263.03h4.518v1.288h-1.6v4.014h-1.3v-4H614.84l-.028-.218a2.039,2.039,0,0,1-.011-.309c0-.04,0-.079,0-.118,0-.094,0-.189,0-.285Zm4.018.5H615.3c0,.05,0,.1,0,.15s0,.091,0,.136c0,.006,0,.011,0,.017h1.618v4h.3v-4.014h1.6Z" transform="translate(-20.445 -54.455)" fill="#4f4f51"/>
    <path id="Path_11" data-name="Path 11" d="M683.226,285.7h2.415v-1.6h-.212c-.754,0-1.508,0-2.262,0a.654.654,0,0,1-.431-.175.824.824,0,0,1-.142-.142.661.661,0,0,1-.167-.408q.009-.878,0-1.756a.621.621,0,0,1,.177-.429,1.041,1.041,0,0,1,.218-.2.653.653,0,0,1,.384-.107c.268.011.536,0,.828,0,.008-.128,0-.259,0-.389s0-.265,0-.406h.8v.795c.292,0,.567.008.841,0a.592.592,0,0,1,.383.108,1.046,1.046,0,0,1,.313.337.573.573,0,0,1,.079.295c0,.283,0,.567,0,.86h-.8V281.7h-2.4v1.6h.245c.737,0,1.475,0,2.212,0a.631.631,0,0,1,.452.184.881.881,0,0,1,.232.28.652.652,0,0,1,.068.274q-.008.865,0,1.731a.645.645,0,0,1-.185.451,1.052,1.052,0,0,1-.125.124.648.648,0,0,1-.432.173c-.284-.008-.568,0-.861,0v.794a3.49,3.49,0,0,1-.4.008c-.133,0-.265,0-.407,0v-.8c-.282,0-.557-.019-.828,0a.9.9,0,0,1-.783-.58.188.188,0,0,1,0-.074q0-.414,0-.828v-.125h.8Z" transform="translate(-74.951 -68.057)" fill="#4f4f51"/>
    <path id="Path_11_-_Outline" data-name="Path 11 - Outline" d="M684.674,287.565l-.185,0H683.8v-.806h-.015c-.083,0-.166,0-.249,0-.114,0-.207,0-.293.011l-.064,0a1.177,1.177,0,0,1-.967-.728.347.347,0,0,1-.027-.172v-.007c0-.274,0-.55,0-.826v-.375h1.3v.793h1.915v-1.1H684.2q-.518,0-1.036,0h-.006a.908.908,0,0,1-.585-.231,1.062,1.062,0,0,1-.184-.187.9.9,0,0,1-.216-.56c.006-.558.006-1.131,0-1.751a.865.865,0,0,1,.24-.6,1.265,1.265,0,0,1,.273-.247.9.9,0,0,1,.527-.145c.093,0,.2.006.32.006h.251s0-.005,0-.008c0-.045,0-.089,0-.134,0-.09,0-.179,0-.271v-.383h1.3v.8h.251c.129,0,.234,0,.33-.006a.843.843,0,0,1,.541.156,1.3,1.3,0,0,1,.385.418.823.823,0,0,1,.11.418c0,.2,0,.4,0,.61q0,.123,0,.247v.25h-1.3v-.785h-1.9v1.1h1.18c.409,0,.726,0,1.025,0h.007a.884.884,0,0,1,.617.251l.02.018a1.041,1.041,0,0,1,.272.345.892.892,0,0,1,.088.376c-.005.583-.006,1.163,0,1.726a.889.889,0,0,1-.249.62,1.27,1.27,0,0,1-.155.153.894.894,0,0,1-.594.227c-.1,0-.207,0-.338,0H685.1v.765l-.218.028A1.65,1.65,0,0,1,684.674,287.565Zm-.185-.5h.114v-.8h.25l.516,0c.136,0,.248,0,.352,0h.008a.414.414,0,0,0,.261-.119.849.849,0,0,0,.094-.1.4.4,0,0,0,.121-.282c0-.566,0-1.15,0-1.735a.422.422,0,0,0-.047-.172.623.623,0,0,0-.154-.178l-.02-.019a.384.384,0,0,0-.276-.116c-.3,0-.622,0-1.032,0H683v-2.1h2.9v.785h.3c0-.21,0-.409,0-.613a.326.326,0,0,0-.048-.172.792.792,0,0,0-.242-.255.349.349,0,0,0-.225-.06c-.1,0-.215.006-.351.006l-.5,0h-.25v-.795h-.3c0,.053,0,.106,0,.158s0,.083,0,.125c0,.09,0,.183,0,.278l-.015.234h-.234l-.5,0c-.133,0-.241,0-.342-.006a.409.409,0,0,0-.241.069.836.836,0,0,0-.163.154.376.376,0,0,0-.115.261c.005.623.005,1.2,0,1.761a.435.435,0,0,0,.118.257.613.613,0,0,0,.1.1.41.41,0,0,0,.268.118c.555,0,1.1,0,1.654,0h1.073v2.1h-2.915v-.793h-.3q0,.351,0,.7s0,.006,0,.008a.681.681,0,0,0,.494.4h.022c.1-.009.207-.013.336-.013.086,0,.172,0,.259,0s.169,0,.255,0h.25v.8Z" transform="translate(-74.951 -68.057)" fill="#4f4f51"/>
  </g>
</svg>
