<svg xmlns="http://www.w3.org/2000/svg" width="26.967" height="26.337" viewBox="0 0 26.967 26.337">
  <g id="Group_110" data-name="Group 110" transform="translate(-145.596 -511.207)">
    <g id="Group_18" data-name="Group 18" transform="translate(150.784 511.457)">
      <path id="Path_31" data-name="Path 31" d="M174.144,509.123a6.628,6.628,0,0,0-6.537,6.192h.989a5.579,5.579,0,1,1,5.548,6.216,5.531,5.531,0,0,1-4.533-2.391l-.813.571a6.511,6.511,0,0,0,5.345,2.829,6.71,6.71,0,0,0,0-13.417Z" transform="translate(-165.798 -509.123)" fill="#4f4f51"/>
      <path id="Path_31_-_Outline" data-name="Path 31 - Outline" d="M174.144,508.873a6.96,6.96,0,0,1,0,13.917,6.784,6.784,0,0,1-5.55-2.936l-.142-.2,1.221-.859.144.205a5.3,5.3,0,0,0,4.328,2.284,5.451,5.451,0,0,0,0-10.9,5.234,5.234,0,0,0-3.595,1.435,5.486,5.486,0,0,0-1.7,3.519l-.02.228h-1.487l.02-.269a7,7,0,0,1,2.15-4.555A6.7,6.7,0,0,1,174.144,508.873Zm0,13.417a6.46,6.46,0,0,0,0-12.917,6.2,6.2,0,0,0-4.291,1.73,6.5,6.5,0,0,0-1.971,3.962h.49a5.982,5.982,0,0,1,1.835-3.611,5.733,5.733,0,0,1,3.937-1.571,5.951,5.951,0,0,1,0,11.9,5.794,5.794,0,0,1-4.59-2.3l-.4.284A6.275,6.275,0,0,0,174.144,522.29Z" transform="translate(-165.798 -509.123)" fill="#4f4f51"/>
      <path id="Path_32" data-name="Path 32" d="M160.13,539.137h5.085l-2.569,3.265Z" transform="translate(-160.13 -533.386)" fill="#4f4f51"/>
      <path id="Path_32_-_Outline" data-name="Path 32 - Outline" d="M159.621,538.887h6.108l-3.086,3.922Zm5.078.5h-4.061l2.009,2.608Z" transform="translate(-160.13 -533.386)" fill="#4f4f51"/>
    </g>
    <g id="Group_23" data-name="Group 23" transform="translate(145.847 525.882)">
      <g id="Group_22" data-name="Group 22" transform="translate(0 0)">
        <g id="Group_21" data-name="Group 21">
          <g id="Group_19" data-name="Group 19">
            <path id="Path_33" data-name="Path 33" d="M167.673,589.8H149.042a3.258,3.258,0,0,1-3.186-3.032,4.03,4.03,0,0,1,1.615-3.609c1.146-.927,7.112-4.451,7.366-4.6l.288-.17.3.154a9.275,9.275,0,0,0,3.843.681v1.21a11.227,11.227,0,0,1-4.079-.676c-2.19,1.3-6.127,3.672-6.953,4.341a2.837,2.837,0,0,0-1.168,2.6,2.073,2.073,0,0,0,1.979,1.891h18.631Z" transform="translate(-145.847 -578.386)" fill="#4f4f51"/>
            <path id="Path_33_-_Outline" data-name="Path 33 - Outline" d="M167.923,590.047H149.042a3.512,3.512,0,0,1-3.436-3.268,4.262,4.262,0,0,1,1.707-3.817c1.17-.947,7.142-4.472,7.4-4.621l.408-.24.42.218a9.17,9.17,0,0,0,3.728.653h.25v1.71h-.25a11.637,11.637,0,0,1-4.056-.649c-2.208,1.308-6.022,3.613-6.819,4.259a2.581,2.581,0,0,0-1.076,2.391,1.831,1.831,0,0,0,1.729,1.655h18.881Zm-12.79-11.376-.169.1c-.062.036-6.194,3.655-7.335,4.579a3.8,3.8,0,0,0-1.523,3.4,3,3,0,0,0,2.937,2.8h18.381v-.71H149.042a2.334,2.334,0,0,1-2.228-2.127,3.1,3.1,0,0,1,1.26-2.808c1.025-.83,6.377-4,6.983-4.362l.105-.062.114.045a10.74,10.74,0,0,0,3.737.656v-.71a9.375,9.375,0,0,1-3.705-.706Z" transform="translate(-145.847 -578.386)" fill="#4f4f51"/>
          </g>
          <g id="Group_20" data-name="Group 20" transform="translate(13.049 0.003)">
            <path id="Path_34" data-name="Path 34" d="M210,589.807h-1.445V588.6H210a2.073,2.073,0,0,0,1.978-1.891,2.836,2.836,0,0,0-1.168-2.6c-.827-.669-4.763-3.045-6.953-4.341a11.23,11.23,0,0,1-4.079.676v-1.21a9.271,9.271,0,0,0,3.845-.683l.3-.15.288.167c.253.15,6.22,3.673,7.365,4.6a4.029,4.029,0,0,1,1.615,3.609A3.258,3.258,0,0,1,210,589.807Z" transform="translate(-199.775 -578.399)" fill="#4f4f51"/>
            <path id="Path_34_-_Outline" data-name="Path 34 - Outline" d="M210,590.057h-1.7v-1.71H210a1.831,1.831,0,0,0,1.729-1.655,2.58,2.58,0,0,0-1.076-2.391c-.8-.645-4.61-2.95-6.819-4.259a11.643,11.643,0,0,1-4.056.649h-.25v-1.71h.25a9.156,9.156,0,0,0,3.733-.656l.415-.21.405.235c.639.377,6.263,3.7,7.4,4.622a4.262,4.262,0,0,1,1.707,3.817A3.512,3.512,0,0,1,210,590.057Zm-1.2-.5H210a3,3,0,0,0,2.937-2.8,3.8,3.8,0,0,0-1.523-3.4c-1.125-.91-7.082-4.43-7.335-4.579l-.169-.1-.174.088a9.18,9.18,0,0,1-3.708.707v.71a10.75,10.75,0,0,0,3.737-.656l.114-.045.105.062c.607.359,5.959,3.533,6.983,4.362a3.1,3.1,0,0,1,1.26,2.808A2.333,2.333,0,0,1,210,588.847h-1.2Z" transform="translate(-199.775 -578.399)" fill="#4f4f51"/>
          </g>
        </g>
      </g>
    </g>
  </g>
</svg>
