<svg id="Component_38_14" data-name="Component 38 – 14" xmlns="http://www.w3.org/2000/svg" width="17.705" height="10.485" viewBox="0 0 17.705 10.485">
  <path id="Path_5" data-name="Path 5" d="M711.467,676.591h.232a9.884,9.884,0,0,1,5.188,1.586A15.329,15.329,0,0,1,720,680.74a1.587,1.587,0,0,1,0,2.187,15.334,15.334,0,0,1-3.112,2.563,9.884,9.884,0,0,1-5.187,1.586h-.232a9.883,9.883,0,0,1-5.187-1.586,15.336,15.336,0,0,1-3.112-2.563,1.587,1.587,0,0,1,0-2.187,15.328,15.328,0,0,1,3.112-2.563A9.883,9.883,0,0,1,711.467,676.591Zm.232,9.263a8.686,8.686,0,0,0,4.548-1.405,14.094,14.094,0,0,0,2.858-2.356.368.368,0,0,0,0-.519,14.09,14.09,0,0,0-2.858-2.356,8.686,8.686,0,0,0-4.548-1.405h-.232a8.685,8.685,0,0,0-4.548,1.405,14.092,14.092,0,0,0-2.858,2.356.368.368,0,0,0,0,.519,14.091,14.091,0,0,0,2.858,2.356,8.685,8.685,0,0,0,4.548,1.405Z" transform="translate(-702.73 -676.591)" fill="#c1c0c0"/>
  <path id="Ellipse_1" data-name="Ellipse 1" d="M3.531-1A4.438,4.438,0,0,1,8.062,3.327,4.438,4.438,0,0,1,3.531,7.655,4.438,4.438,0,0,1-1,3.327,4.438,4.438,0,0,1,3.531-1Zm0,7.433A3.216,3.216,0,0,0,6.841,3.327,3.216,3.216,0,0,0,3.531.222,3.216,3.216,0,0,0,.222,3.327,3.216,3.216,0,0,0,3.531,6.433Z" transform="translate(5.205 1)" fill="#c1c0c0"/>
</svg>
