<svg id="Component_39_24" data-name="Component 39 – 24" xmlns="http://www.w3.org/2000/svg" width="14.219" height="14" viewBox="0 0 14.219 14">
  <path id="Path_38" data-name="Path 38" d="M1014.45,391.921l2.64,2.634.372-.382-2.627-2.634Zm2.626-1.811h0a1.9,1.9,0,0,1,1.9,1.9,1.966,1.966,0,0,1-.384,1.134l-.754.736-2.628-2.635.73-.766a2.056,2.056,0,0,1,1.137-.367Zm-3.342,2.532h0l2.632,2.635.384-.382-2.637-2.637Zm-.439.292h0l-7.426,7.421a.421.421,0,0,0-.1.191l-.987,2.914a.679.679,0,0,0-.026.165v.013a.482.482,0,0,0,.142.328.476.476,0,0,0,.339.145.588.588,0,0,0,.162-.03l2.916-.985a.419.419,0,0,0,.2-.119l7.411-7.406Zm-5.253,9.425h0v.015s0,0,0,0,0,0-.023,0v0a5.791,5.791,0,0,1-.953.414c-.064.027-.15.045-.236.073l-.865-.869a2.5,2.5,0,0,0,.086-.236,5.951,5.951,0,0,1,.409-.954l0,0,.018-.015v-.014l.054-.045,1.577,1.563Z" transform="translate(-1004.756 -390.11)" fill="#c1c0c0"/>
</svg>
