<svg xmlns="http://www.w3.org/2000/svg" width="16.279" height="14.994" viewBox="0 0 16.279 14.994">
  <g id="Group_849" data-name="Group 849" transform="translate(-22543.184 -3626.768)">
    <path id="Path_3415" data-name="Path 3415" d="M15003.418,4154.531l2.633,2.559,5.082-5.029" transform="translate(7544.334 -520.369)" fill="none" stroke="#c1c0c0" stroke-linecap="round" stroke-linejoin="round" stroke-width="1"/>
    <path id="Path_3416" data-name="Path 3416" d="M14991.711,4146.737l1.2,2.708,2.889-.976" transform="translate(7552.133 -517.007)" fill="none" stroke="#c1c0c0" stroke-linecap="round" stroke-linejoin="round" stroke-width="1"/>
    <path id="Path_3417" data-name="Path 3417" d="M15891.762,3607.355a10.08,10.08,0,0,1,1.088-2.01,7.862,7.862,0,0,1,2.274-2,8.177,8.177,0,0,1,2.773-.824,7.438,7.438,0,0,1,3.649.669,7.618,7.618,0,0,1,2.965,2.676,7.451,7.451,0,0,1,1.026,3.476,7.11,7.11,0,0,1-.47,2.6,8.85,8.85,0,0,1-1.574,2.478,7.581,7.581,0,0,1-1.7,1.253,8.172,8.172,0,0,1-1.948.705,6.751,6.751,0,0,1-2.13.069,6.988,6.988,0,0,1-2.853-.962,5.517,5.517,0,0,1-1.2-.923" transform="translate(6653.425 24.765)" fill="none" stroke="#c1c0c0" stroke-linecap="round" stroke-width="1"/>
  </g>
</svg>
