<svg id="Component_110_2" data-name="Component 110 – 2" xmlns="http://www.w3.org/2000/svg" width="19.487" height="14.619" viewBox="0 0 19.487 14.619">
  <g id="Group_220" data-name="Group 220" transform="translate(-2 -1.992)">
    <path id="Path_1" data-name="Path 1" d="M163.371,244.937a2.837,2.837,0,0,1,.618,2.027c-.022,1.137,0,2.275-.006,3.412a1.673,1.673,0,0,1-1.8,1.8c-.365,0-.73,0-1.095,0a1.646,1.646,0,0,1-1.6-1.4c-.013-.09-.027-.18-.042-.285h-9.174c-.042.186-.07.379-.13.56a1.6,1.6,0,0,1-1.556,1.127,10.472,10.472,0,0,1-1.528-.04,1.6,1.6,0,0,1-1.326-1.568q-.018-2.08,0-4.16a2.268,2.268,0,0,1,.472-1.3c.042-.058.085-.116.137-.186a1.774,1.774,0,0,1-1.133-1.1,1.724,1.724,0,0,1,1.538-2.309c.509-.024,1.019,0,1.535,0,.215-.519.417-1.019.628-1.514a4.048,4.048,0,0,1,1.537-2.007,2.733,2.733,0,0,1,1.437-.41c1.885-.007,3.771.009,5.656-.01a3.1,3.1,0,0,1,3.051,1.956c.264.566.485,1.152.726,1.729l.1.249c.466,0,.927,0,1.388,0a1.724,1.724,0,0,1,1.784,1.816,1.69,1.69,0,0,1-1.045,1.525l-.149.067C163.4,244.909,163.393,244.915,163.371,244.937Zm-8.514,4.349h5.055c.442,0,.643.2.65.647a4.892,4.892,0,0,0,.023.546.51.51,0,0,0,.554.485c.31,0,.62,0,.931,0,.51,0,.7-.191.705-.7,0-1.223,0-2.445,0-3.668a1.453,1.453,0,0,0-.318-.929c-.226-.287-.448-.576-.676-.861a.535.535,0,0,1-.1-.594.563.563,0,0,1,.546-.327c.17,0,.341,0,.511,0a.62.62,0,1,0-.008-1.239c-.548,0-1.1,0-1.643,0a.613.613,0,0,1-.684-.452q-.4-.959-.8-1.919a2.065,2.065,0,0,0-2.236-1.5h-5.329a1.734,1.734,0,0,0-1.534.8,6.155,6.155,0,0,0-.48.877c-.256.57-.487,1.152-.728,1.729a.617.617,0,0,1-.692.466c-.566,0-1.131,0-1.7,0a.619.619,0,0,0,0,1.236,2.36,2.36,0,0,1,.581.012,1.05,1.05,0,0,1,.512.311.465.465,0,0,1-.072.588,10.273,10.273,0,0,0-.667.867,1.687,1.687,0,0,0-.318.775c-.032,1.319-.021,2.64-.012,3.96a.535.535,0,0,0,.595.567c.2,0,.4-.009.6,0,.9.049,1.027-.125,1.015-1.019-.006-.465.2-.661.669-.662Z" transform="translate(-143.11 -235.569)" fill="#c1c0c0"/>
  </g>
  <g id="Group_221" data-name="Group 221" transform="translate(-1803.461 -420.395)">
    <circle id="Ellipse_123" data-name="Ellipse 123" cx="3.151" cy="3.151" r="3.151" transform="translate(1809.5 423)" fill="#fff" stroke="#c1c0c0" stroke-linecap="round" stroke-linejoin="round" stroke-miterlimit="10" stroke-width="1.2"/>
    <path id="Path_3400" data-name="Path 3400" d="M18.363,18.363,16,16" transform="translate(1799.015 412.514)" fill="#fff" stroke="#c1c0c0" stroke-linecap="round" stroke-linejoin="round" stroke-miterlimit="10" stroke-width="1.2"/>
  </g>
</svg>
