<svg id="trash" xmlns="http://www.w3.org/2000/svg" width="12.966" height="14.759" viewBox="0 0 12.966 14.759">
  <path id="trash-2" data-name="trash" d="M3.221,13.606a1.27,1.27,0,0,0,1.294,1.153h7.936a1.27,1.27,0,0,0,1.294-1.153l.572-8.686H2.648ZM14.317,2.46H12.373V1.845A1.9,1.9,0,0,0,10.428,0H6.538A1.9,1.9,0,0,0,4.593,1.845V2.46H2.648A.633.633,0,0,0,2,3.075a.633.633,0,0,0,.648.615H14.317a.633.633,0,0,0,.648-.615A.633.633,0,0,0,14.317,2.46Zm-3.241,0H5.89V1.845a.633.633,0,0,1,.648-.615h3.89a.633.633,0,0,1,.648.615Z" transform="translate(-2)" fill="#c1c0c0"/>
</svg>
